<svg xmlns="http://www.w3.org/2000/svg" xmlns:xlink="http://www.w3.org/1999/xlink" width="86.996" height="133.26" viewBox="0 0 86.996 133.26">
  <defs>
    <clipPath id="clip-path">
      <rect id="Rectángulo_402497" data-name="Rectángulo 402497" width="60.292" height="41.006" transform="translate(136.934 87.642)" fill="none"/>
    </clipPath>
  </defs>
  <g id="banner-principal-decorativo-2" transform="translate(11966.365 11900.05)">
    <path id="Trazado_880152" data-name="Trazado 880152" d="M206.85,99.851h0c11.223-15.011-.987-36.158-19.6-33.944-7.388-17.225-31.807-17.225-39.195,0-18.611-2.214-30.821,18.933-19.6,33.944-11.223,15.011.987,36.158,19.6,33.944,7.388,17.225,31.807,17.225,39.195,0C205.863,136.009,218.073,114.862,206.85,99.851Z" transform="translate(-12090.521 -11953.038)" fill="#fff"/>
    <path id="Trazado_880153" data-name="Trazado 880153" d="M149.658,118.636s-4.273,22.6-4.292,38.362,2.76,29.084,6.559,29.249,8.022-13.983,9.61-14.037,4.573,10.435,7.64,9.534-1.111-58.472-1.111-58.472Z" transform="translate(-12090.521 -11953.038)" fill="#59b4f1"/>
    <path id="Trazado_880154" data-name="Trazado 880154" d="M185.3,115.145s8.291,21.461,11.159,36.953S199,181.2,195.3,182.049s-10.418-12.3-11.99-12.067-2.4,11.072-5.578,10.74-9.694-57.69-9.694-57.69Z" transform="translate(-12090.521 -11953.038)" fill="#59b4f1"/>
    <path id="Trazado_880155" data-name="Trazado 880155" d="M149.658,118.636s-2.95,15.622-3.958,29.94a53.89,53.89,0,0,1,23.552-6.97c-.61-10.335-1.188-18.334-1.188-18.334Z" transform="translate(-12090.521 -11953.038)" fill="#4790c1"/>
    <path id="Trazado_880156" data-name="Trazado 880156" d="M168.036,123.032s.893,8.119,2.182,18.529a60.566,60.566,0,0,1,24.828,4.058,295.387,295.387,0,0,0-9.746-30.474Z" transform="translate(-12090.521 -11953.038)" fill="#4790c1"/>
    <path id="Trazado_880157" data-name="Trazado 880157" d="M136.934,103.448c-.045-23.111,7.473-31.309,26.852-34.17s32.733,7.967,33.481,26.427-3.383,31.038-28.068,32.819c-19.742,1.426-32.235-9.636-32.265-25.076" transform="translate(-12090.521 -11953.038)" fill="#59b4f1"/>
    <path id="Trazado_880158" data-name="Trazado 880158" d="M142.232,102.631c-.037-19.042,6.157-25.795,22.124-28.153s26.967,6.564,27.582,21.774-2.786,25.57-23.125,27.039c-16.263,1.173-26.557-7.94-26.581-20.66" transform="translate(-12090.521 -11953.038)" fill="#e6f9ff"/>
    <path id="Trazado_880159" data-name="Trazado 880159" d="M157.459,90.971c3.586-7.926,9,5.221,10.008,4.982s4.237-14.178,10.188-8.679-6.366,25.182-7.493,25.766-16.863-12.875-12.7-22.069" transform="translate(-12090.521 -11953.038)" fill="#b4d448"/>
    <path id="Trazado_880160" data-name="Trazado 880160" d="M168.627,98.733q1.808,9.189,2.7,18.514a.2.2,0,0,1-.4.058c-.632-3.059-1.1-6.143-1.572-9.225-.426-3.089-.866-6.176-1.129-9.289a.2.2,0,0,1,.4-.058" transform="translate(-12090.521 -11953.038)"/>
    <g id="Grupo_1101886" data-name="Grupo 1101886" transform="translate(-12090.521 -11953.038)" style="mix-blend-mode: multiply;isolation: isolate">
      <g id="Grupo_1101885" data-name="Grupo 1101885">
        <g id="Grupo_1101884" data-name="Grupo 1101884" clip-path="url(#clip-path)">
          <path id="Trazado_880161" data-name="Trazado 880161" d="M138.714,87.642a58.135,58.135,0,0,0-1.78,15.806c.03,15.44,12.523,26.5,32.265,25.076,21.066-1.52,27.157-10.907,28.028-25.1-20.665-.233-41.365-4.282-58.513-15.782" fill="#e6f9ff"/>
        </g>
      </g>
    </g>
    <path id="Trazado_880162" data-name="Trazado 880162" d="M166.123,132.2c.135,6.828.829,16.653,1.263,23.564a.2.2,0,0,1-.187.213.2.2,0,0,1-.212-.173c-.57-3.9-.931-7.833-1.195-11.771a98.479,98.479,0,0,1-.07-11.841.2.2,0,0,1,.4.008" transform="translate(-12090.521 -11953.038)"/>
    <path id="Trazado_880163" data-name="Trazado 880163" d="M172.7,132.128q1.773,9.045,2.632,18.228a.2.2,0,0,1-.184.217.2.2,0,0,1-.214-.163c-.62-3.012-1.073-6.047-1.537-9.081-.415-3.04-.842-6.078-1.094-9.143a.2.2,0,0,1,.4-.058" transform="translate(-12090.521 -11953.038)"/>
  </g>
</svg>
