<svg xmlns="http://www.w3.org/2000/svg" xmlns:xlink="http://www.w3.org/1999/xlink" width="1320" height="507" viewBox="0 0 1320 507">
  <defs>
    <linearGradient id="linear-gradient" x1="0.752" y1="0.373" x2="-0.063" y2="1.365" gradientUnits="objectBoundingBox">
      <stop offset="0" stop-color="#aed139"/>
      <stop offset="1" stop-color="#2b340e"/>
    </linearGradient>
    <clipPath id="clip-path">
      <path id="Trazado_886014" data-name="Trazado 886014" d="M19,0H1301a19,19,0,0,1,19,19V488a19,19,0,0,1-19,19H19A19,19,0,0,1,0,488V19A19,19,0,0,1,19,0Z" transform="translate(151.333 81)" fill="url(#linear-gradient)"/>
    </clipPath>
  </defs>
  <g id="fondo-banner-principal" transform="translate(12845 12945)">
    <g id="fondo-banner-principal-2" data-name="fondo-banner-principal" transform="translate(-12996.333 -13026)" clip-path="url(#clip-path)">
      <path id="Trazado_886002" data-name="Trazado 886002" d="M19,0H1301a19,19,0,0,1,19,19V488a19,19,0,0,1-19,19H19A19,19,0,0,1,0,488V19A19,19,0,0,1,19,0Z" transform="translate(151.333 81)" fill="url(#linear-gradient)"/>
      <g id="Elipse_11686" data-name="Elipse 11686" transform="translate(876.333 448)" fill="#aed139" stroke="#707070" stroke-width="1" opacity="0.37" style="mix-blend-mode: hard-light;isolation: isolate">
        <circle cx="333" cy="333" r="333" stroke="none"/>
        <circle cx="333" cy="333" r="332.5" fill="none"/>
      </g>
      <g id="Elipse_11687" data-name="Elipse 11687" transform="translate(887.333 -430)" fill="#aed139" stroke="#707070" stroke-width="1" opacity="0.37" style="mix-blend-mode: hard-light;isolation: isolate">
        <circle cx="333" cy="333" r="333" stroke="none"/>
        <circle cx="333" cy="333" r="332.5" fill="none"/>
      </g>
      <g id="Elipse_11688" data-name="Elipse 11688" transform="translate(-71.667 -187)" fill="#56681c" stroke="#707070" stroke-width="1" opacity="0.37" style="mix-blend-mode: hard-light;isolation: isolate">
        <circle cx="484" cy="484" r="484" stroke="none"/>
        <circle cx="484" cy="484" r="483.5" fill="none"/>
      </g>
      <path id="Trazado_886003" data-name="Trazado 886003" d="M288.924,329.855c8.219,5.424,16.227,3.108,24.208,2.712a339.4,339.4,0,0,1,34.735-.4c13.947.717,27.61.092,40.4-5.737,5.995-2.731,11.134-7.282,16.917-10.555a55.763,55.763,0,0,1,11.584-4.707,7.44,7.44,0,0,1,9.773,6.4c1.168,14.609-1.434,28.29-11.3,39.764-6.684,7.787-15.749,11.575-25.247,14.655q-16.591,5.392-33.043,11.116a173.325,173.325,0,0,1-41.824,9.36c-7.052.625-14,2.363-21.054,3.089-8.946.919-17.956.827-26.626-1.885-8.78-2.749-17.395-6.022-26.1-9.01-3.337-1.149-6.8-1.986-10.095-3.255-12.44-4.8-25.615-7.778-37.181-14.793-2.115-1.278-4.358-2.344-6.537-3.512-2.961-1.581-4.8.064-6.142,2.363-4.579,7.879-9.157,15.768-13.561,23.757-4.772,8.67-9.617,17.331-13.929,26.24a133.455,133.455,0,0,0-8,20.172c-1.728,5.857-1.94,12.136-3.236,18.149a17.743,17.743,0,0,1-3.337,6.537,5.748,5.748,0,0,1-8.652.818c-5.995-5.195-9.277-11.263-7.833-19.758,1.443-8.523,5.277-16.053,8.284-23.932a168.332,168.332,0,0,1,8.128-18.232c3.356-6.362,7.567-12.265,11.07-18.563q9.3-16.66,18.1-33.595c1.113-2.124-3.393-6.1-3.439-6.454-.809-5.618-6.022-7.6-9.277-11.106-6.022-6.5-13.1-12.228-16.8-20.411a257.054,257.054,0,0,1-10.38-27.2c-7.309-22.718-9.433-46.338-11.373-69.957-.818-10.031-.11-20.089,3.1-29.623a60.888,60.888,0,0,1,8.146-15.464c5.47-7.741,11.584-15.032,17.561-22.4,6.932-8.569,16.6-7.226,22.5,1.168,6.243,8.872,8.983,18.774,9.838,29.6a142.174,142.174,0,0,1-1.885,37.144c-1.876,10.159-1.931,20.677-2.5,31.067-.377,6.96-.4,13.957-.276,20.944.092,5.323.763,10.61,3.871,15.234,3,4.477,5.562,4.45,8.026-.221,4.119-7.815,5.3-16.338,6.086-24.98.745-8.339,1.839-16.65,2.455-25,.855-11.7,1.379-23.435,2.1-35.139.662-10.711,1.25-21.422,2.151-32.105.441-5.2,1.453-10.371,2.289-15.538,2.17-13.5,7.907-25.5,15.354-36.831,5.434-8.275,10.693-16.66,15.906-25.081,4.312-6.969,10.739-11.263,17.827-14.922,7.245-3.742,14.287-7.861,21.542-11.6,8.275-4.275,16.531-8.652,25.081-12.32,4.569-1.958,9.084-.037,12.752,3.3,5.075,4.606,3.733,9.516,1.4,15.786-3.144,8.477-6.923,16.715-10.012,25.21-2.032,5.581-3.411,11.41-4.919,17.174-1.627,6.27-3.338,12.541-4.533,18.9-2.446,13.037-7.8,24.833-14.14,36.362-6.05,10.987-11.787,22.176-15.115,34.386-1.931,7.079-4.137,14.1-5.709,21.257-.588,2.7.028,5.765.552,8.56.331,1.774,1.765,2.105,3.475,1.039,4.156-2.6,6.592-6.546,8.2-10.922,2.74-7.466,4.643-15.28,7.8-22.562,3.742-8.652,8.468-16.9,12.7-25.357,4.937-9.874,10.123-19.629,14.609-29.706,6.721-15.078,13.046-30.432,24.861-42.357a278.606,278.606,0,0,1,25.357-22.452c12.173-9.589,25.964-16.512,40.463-21.955,7.971-3,16.338-4.064,24.732-5.332,12.145-1.848,24.134-4.735,36.169-7.254,6.574-1.37,10.242.009,11.29,7.144a75.192,75.192,0,0,1-3.411,35.645c-2.676,7.824-6.942,15.152-11.005,22.424-9.617,17.184-19.16,34.432-29.448,51.229-8.339,13.626-16.908,27.279-26.9,39.672-7.208,8.946-16.871,15.933-25.559,23.656-5.673,5.029-11.649,9.709-17.3,14.747a29.164,29.164,0,0,1-13.322,6.482,31.56,31.56,0,0,0-18.9,12.5c-2.023,2.721-1.48,4.606,1.94,4.606a35.273,35.273,0,0,0,12.164-1.931,160.235,160.235,0,0,0,19.464-8.927c13.809-7.41,27.582-14.922,41.115-22.829a81.153,81.153,0,0,0,27.582-27.15c6.234-9.819,12.761-19.528,22.112-26.727a58.03,58.03,0,0,1,12.789-7.466c5.562-2.317,12.274,1.857,12.954,7.888a49.484,49.484,0,0,1-.331,11.768c-2.289,17.809-12.274,31.922-22.406,45.942a70.159,70.159,0,0,0-10,20.641c-5.222,16.862-13.69,31.48-28.934,41.309-8.5,5.48-16.77,11.428-25.706,16.1-12.062,6.307-25.164,9.81-38.7,11.759-15.5,2.225-31.305,2.225-46.522,6.463a27.18,27.18,0,0,0-5.5,1.646c-1.342.68-2.289,2.124-3.494,3.31" transform="translate(833.797 295.023)" fill="#aed139" opacity="0.19" style="mix-blend-mode: hard-light;isolation: isolate"/>
      <path id="Trazado_886004" data-name="Trazado 886004" d="M571.821,807.248c21.733,14.343,42.906,8.217,64.006,7.171,30.557-1.507,61.308-2.674,91.84-1.045,36.877,1.9,73,.243,106.815-15.169,15.85-7.22,29.439-19.253,44.729-27.907a147.439,147.439,0,0,1,30.63-12.447c12.4-3.7,24.82,4.205,25.841,16.919,3.087,38.628-3.792,74.8-29.876,105.138-17.673,20.59-41.642,30.605-66.753,38.749q-43.866,14.257-87.367,29.39c-35.954,12.471-72.539,21.417-110.583,24.747-18.645,1.653-37.023,6.247-55.668,8.168-23.653,2.431-47.476,2.188-70.4-4.983-23.215-7.268-45.993-15.923-69.014-23.823-8.824-3.039-17.989-5.251-26.691-8.606-32.891-12.69-67.726-20.566-98.307-39.114-5.591-3.379-11.523-6.2-17.284-9.286-7.828-4.181-12.69.17-16.239,6.247-12.106,20.833-24.212,41.69-35.856,62.815-12.617,22.924-25.427,45.823-36.829,69.379a352.858,352.858,0,0,0-21.149,53.334c-4.57,15.485-5.129,32.088-8.557,47.987-1.313,6.126-4.983,12.155-8.824,17.284-5.688,7.584-15.582,8.484-22.875,2.164-15.85-13.735-24.528-29.779-20.711-52.241,3.816-22.535,13.953-42.444,21.9-63.277a445.079,445.079,0,0,1,21.49-48.205c8.873-16.822,20.007-32.429,29.268-49.08q24.577-44.048,47.865-88.826c2.942-5.615-8.97-16.117-9.092-17.065-2.139-14.853-15.923-20.1-24.528-29.365-15.923-17.187-34.641-32.332-44.413-53.967a679.659,679.659,0,0,1-27.445-71.907c-19.326-60.068-24.941-122.519-30.071-184.97-2.164-26.521-.292-53.116,8.192-78.325,4.862-14.464,12.689-28.393,21.538-40.888,14.464-20.469,30.63-39.746,46.431-59.217,18.329-22.656,43.9-19.107,59.485,3.087,16.506,23.458,23.75,49.64,26.011,78.276a375.913,375.913,0,0,1-4.983,98.209c-4.959,26.862-5.105,54.672-6.612,82.141-1,18.4-1.07,36.9-.729,55.377.243,14.075,2.018,28.053,10.234,40.281,7.925,11.839,14.707,11.766,21.222-.583,10.89-20.663,14.027-43.2,16.093-66.048,1.969-22.049,4.862-44.024,6.491-66.1,2.261-30.946,3.646-61.964,5.542-92.91,1.751-28.32,3.306-56.641,5.688-84.888,1.167-13.759,3.841-27.421,6.053-41.083,5.737-35.686,20.906-67.434,40.6-97.383,14.367-21.878,28.272-44.048,42.055-66.316,11.4-18.426,28.393-29.779,47.136-39.454,19.156-9.894,37.777-20.785,56.957-30.678,21.879-11.3,43.708-22.875,66.316-32.574,12.082-5.178,24.018-.1,33.717,8.727,13.419,12.179,9.87,25.16,3.695,41.739-8.314,22.413-18.3,44.194-26.473,66.656-5.372,14.756-9.019,30.168-13.005,45.41-4.3,16.579-8.825,33.158-11.984,49.98-6.467,34.471-20.614,65.659-37.388,96.143-16,29.05-31.165,58.634-39.965,90.917-5.1,18.718-10.939,37.291-15.1,56.2-1.556,7.147.073,15.242,1.459,22.632.875,4.692,4.668,5.567,9.189,2.747,10.988-6.88,17.43-17.308,21.684-28.88,7.244-19.739,12.276-40.4,20.615-59.655,9.894-22.875,22.388-44.681,33.571-67.045,13.054-26.108,26.764-51.9,38.627-78.543,17.771-39.867,34.5-80.464,65.733-111.993a736.63,736.63,0,0,1,67.045-59.363C775,106.7,811.463,88.4,849.8,74.007c21.076-7.925,43.2-10.745,65.392-14.1C947.3,55.021,979,47.388,1010.823,40.727c17.381-3.622,27.081.024,29.852,18.888a198.811,198.811,0,0,1-9.019,94.247c-7.074,20.687-18.354,40.062-29.1,59.29C977.13,258.587,951.9,304.191,924.695,348.6c-22.048,36.026-44.7,72.126-71.129,104.895-19.058,23.653-44.607,42.128-67.58,62.548-15,13.3-30.8,25.671-45.75,38.992-10.259,9.116-22.243,14.2-35.224,17.138-20.954,4.692-37.291,16.044-49.98,33.061-5.348,7.2-3.914,12.179,5.129,12.179,10.769,0,22.17-1.361,32.161-5.1a423.662,423.662,0,0,0,51.463-23.6c36.513-19.593,72.928-39.454,108.711-60.36,30.168-17.649,54.089-42.128,72.928-71.786,16.482-25.962,33.741-51.633,58.464-70.667a153.431,153.431,0,0,1,33.814-19.739c14.707-6.126,32.453,4.911,34.251,20.857,1.167,10.21.438,20.857-.875,31.116-6.053,47.087-32.453,84.4-59.242,121.474-12.033,16.628-20.4,35.03-26.448,54.574-13.808,44.583-36.2,83.235-76.5,109.222-22.486,14.488-44.34,30.216-67.969,42.566C789.025,762.641,754.384,771.9,718.6,777.056c-40.985,5.883-82.773,5.883-123.005,17.09-4.886,1.361-10.137,2.018-14.537,4.351-3.549,1.8-6.053,5.616-9.238,8.751" transform="translate(-326.539 -225.017)" fill="#56681c" stroke="#707070" stroke-width="1" opacity="0.08" style="mix-blend-mode: multiply;isolation: isolate"/>
      <path id="Trazado_886005" data-name="Trazado 886005" d="M234.576,224.71c-.488-3.683-1.032-7.613-1.513-11.55-.353-2.835-.417-5.7-.975-8.5-.813-4.072-3.831-6.821-6.553-9.67-4.644-4.856-10-9.161-13.961-14.512-5.365-7.267-9.55-15.389-14.505-22.967-5.323-8.15-7.465-17.191-7.564-26.678a61.189,61.189,0,0,1,3.584-22.125c3.57-9.529,13.325-13.424,22.733-9.345a36.04,36.04,0,0,1,13.608,10.285,148.421,148.421,0,0,1,19.213,30.269c2.976,6.178,3.916,12.9,4.467,19.694a95.49,95.49,0,0,1-1.265,24.677,123.331,123.331,0,0,1-4.658,17.1A41.636,41.636,0,0,0,247.4,228.6c1.633,4.877,4.192,9.529,5.132,14.512,1.3,6.942,3.951,13.339,6.51,19.75,3.23,8.136,7.366,15.912,10.745,23.992,1.647,3.951,4.206,7.9,2.085,12.681-.495,1.124.382,2.842.594,4.291.4,2.63-.65,4.566-2.877,5.026-2.389.5-3.669-1-4.192-3-1-3.845-3.471-6.744-5.9-9.67a53.22,53.22,0,0,1-10.66-21.9c-.771-3.181-1.371-6.631-5.012-7.931-6.68-2.375-13.254-4.489-20.683-2.651-8.377,2.071-16.979,3.252-25.511,4.708-5.881,1-11.784,1.965-17.707,2.693-13.4,1.647-26.812,3.329-40.257,4.637-9.317.9-18.718,1.449-28.014-.353a44.693,44.693,0,0,1-9.691-2.919c-4.411-1.965-6.673-6.065-8.32-10.349a36.467,36.467,0,0,1-2.375-14.8c.368-8.525,4.877-13.791,12.851-16.166,7.048-2.092,14.378-3.6,21.6-2.149a105.211,105.211,0,0,1,19.008,6.164c9.522,3.916,19.171,7.154,29.512,7.592,6.447.276,12.915.057,19.376.106,2.453.028,4.906.156,7.359.247,7.175.276,14.392.2,21.517.947,3.782.41,7.415,2.227,11.105,3.471a3.833,3.833,0,0,0,2.085.551c-3.174-2.849-6.334-5.712-9.515-8.539-3.485-3.1-7.521-4.531-12.187-5.273a266.029,266.029,0,0,1-27.448-5.733c-12.879-3.492-25.42-8.306-38.37-11.437-11.395-2.743-21.567-7.825-31.131-14.046-9.175-5.966-18.117-12.271-28.311-16.357-10.943-4.376-20.712-10.829-30.855-16.64C49,164.95,41.363,158.588,35.51,150.225c-3.025-4.319-6.1-8.716-6.765-14.2-.877-7.175,1.7-13.19,6.482-18.308A24.958,24.958,0,0,1,54.8,109.53c13.6.247,25.639,4.369,35.408,14.074a99.456,99.456,0,0,1,16.569,22.656c5.655,10.158,12.385,19.333,21.56,26.734,4.863,3.916,9.062,8.666,13.381,13.219,6.093,6.418,11.854,13.148,18.082,19.425,3.909,3.937,9.02,6.037,14.47,7.189q18.057,3.87,36.1,7.8a3.849,3.849,0,0,0,2.05.262c-3-2.149-5.853-4.574-9.034-6.411a58.828,58.828,0,0,1-16.647-14.526c-6.016-7.613-13.2-13.657-20.712-19.552-5.846-4.588-10.271-10.533-14.357-16.711-4.05-6.122-8.263-12.151-12.194-18.351-2.835-4.475-5.28-9.2-8-13.756-.99-1.647-2.269-3.124-3.414-4.687-3.761-5.1-7.641-10.115-11.254-15.325-4.284-6.178-5-13.438-5.337-20.634a86.469,86.469,0,0,1,.573-14.689,33.711,33.711,0,0,1,6.765-17.008c5.139-6.461,11.685-9.006,21.419-4.609,9.691,4.376,15.615,12.144,19.764,21.426,4.4,9.833,6.107,20.415,7.3,31.025.763,6.722.4,13.586,1.322,20.266A183.059,183.059,0,0,0,173.345,151a192.289,192.289,0,0,0,8.794,25.829c4.319,9.861,11.939,17.4,20.273,24.084,4.326,3.485,8.956,6.574,13.424,9.882,6.27,4.63,12.519,9.3,18.739,13.911" transform="matrix(-0.966, -0.259, 0.259, -0.966, 1409.749, 392.547)" fill="#aed139" opacity="0.19" style="mix-blend-mode: hard-light;isolation: isolate"/>
      <path id="Trazado_886006" data-name="Trazado 886006" d="M233.253,317.217c-1.007-3.324-1.682-6.122-2.7-8.788-2.255-5.9-4.828-11.632-10.214-15.491-4.13-2.96-9.059-3.208-13.817-4.037-8.245-1.441-16.553-2.627-24.744-4.34-15.289-3.2-29.106-10.229-42.342-18.1-8.416-5.006-13.554-13.414-16.692-22.7-3.131-9.245-5.967-18.6-8.765-27.952-2.278-7.6-6.564-13.918-11.942-19.6-6.843-7.23-13.972-14.22-20.45-21.76-6.688-7.788-10.423-17.165-12.562-27.185-1.573-7.331-1.449-14.677-.643-22.093.635-5.827.674-11.717,1.271-17.552.69-6.8,1.116-13.678,3.991-20.079.914-2.03,2.046-3.673,4.355-3.921,2.519-.271,3.991,1.24,5.239,3.3,3.534,5.859,6.812,11.949,10.95,17.366a80.107,80.107,0,0,0,12.67,13.151,203.051,203.051,0,0,0,22.318,16.452,160.812,160.812,0,0,1,29.037,23.4c8.524,8.478,13.019,18.753,14.716,30.587,1.387,9.663,4.8,18.769,11.655,25.891,3.363,3.5,7.912,5.928,12.089,8.579,8.834,5.6,17.459,11.384,24.72,19.063a145.285,145.285,0,0,1,19.1,25.72,94.5,94.5,0,0,1,11.818,32.307,7.807,7.807,0,0,0,.984-2.077c.3-2.085.5-4.185.6-6.292.24-4.626.387-9.253.6-13.887.349-7.656-2.309-14.6-4.967-21.574-4.293-11.229-11.686-20.691-17.661-30.959-3.456-5.959-5.192-12.407-6.525-19.032-2.178-10.841.953-20.776,5.231-30.548,3.038-6.959,5.719-14.081,8.9-20.97a8.069,8.069,0,0,1,4.409-3.867c2.278-.728,3.882,1.108,4.743,3.247a122.068,122.068,0,0,0,13.484,24.736c4.936,7.013,10.2,13.8,14.871,20.985,6.447,9.888,12.531,20.055,15.956,31.462a69.566,69.566,0,0,1,2.317,13.468,158.77,158.77,0,0,1,1.093,20.458,193.159,193.159,0,0,1-2.526,22.5c-1.178,7.509-4.774,14.189-8.028,20.962-2.271,4.712-3.875,9.772-6.424,14.3a120.849,120.849,0,0,1-11.058,16.956c-4.882,6.013-5.8,12.345-4.239,19.567,3.255,15.1,8.687,29.471,14.034,43.892,2.263,6.091,4.037,12.639,3.046,19.094-1.255,8.222-3.611,16.281-5.688,24.356a34.443,34.443,0,0,1-2.929,7.1c-1.6,3.1-3.844,3.487-6.812,1.72a27.011,27.011,0,0,0-4.921-2.216c-4.991-1.751-6.06-4.076-4.216-8.919,1.821-4.774,4.092-9.493,5.014-14.453a60.9,60.9,0,0,0,.426-15.127,97.344,97.344,0,0,0-2.387-16.692,186.084,186.084,0,0,0-6.378-20.024,56.335,56.335,0,0,0-9.9-17.591,40.106,40.106,0,0,0-6.254-5.936,70.753,70.753,0,0,0-10.469-6.8c-6.812-3.386-13.817-1.379-20.76-.008-7.269,1.441-14.553,2.891-21.884,3.975a193.392,193.392,0,0,1-21.109,2.232,45.55,45.55,0,0,1-13.3-1.7,163.368,163.368,0,0,1-18.839-6.409c-7.54-3.069-12.321-9.346-16.119-16.15-3.9-6.967-7.029-14.352-10.617-21.5-1.062-2.116-2.534-4.022-3.8-6.029-3.394-5.347-2.3-10.26,3.208-13.352,8.641-4.859,25-6.06,33.307,3.309a123.579,123.579,0,0,1,10.066,12.98c5.363,7.982,12.252,13.538,22.179,13.236,4.006-.116,7.9-2.526,11.942-3.487,6.277-1.488,12.616-2.712,18.963-3.882,9.508-1.759,18.668-.31,27.479,3.5,1.8.775,3.464,1.875,5.9,3.216" transform="translate(1280.007 242.198)" fill="#aed139" opacity="0.19" style="mix-blend-mode: hard-light;isolation: isolate"/>
      <path id="Trazado_886007" data-name="Trazado 886007" d="M3535.239,1056.236a.054.054,0,0,0,.011.017l.051-.036c-.011-.018-.021-.037-.031-.056a.058.058,0,0,0-.031.075" transform="translate(-2640.021 -531.755)" fill="#040504"/>
      <path id="Trazado_886008" data-name="Trazado 886008" d="M3474.321,999.222a.108.108,0,0,0-.2-.081c-.024.059-.086.072-.154.083-.144.023-.318.013-.448.046l.059.219c.151-.041.361-.021.51-.067a.339.339,0,0,0,.233-.2" transform="translate(-2585.152 -481)" fill="#040504"/>
      <path id="Trazado_886009" data-name="Trazado 886009" d="M3472.762,1000.983a.113.113,0,0,0,.136.081l-.056-.22a.114.114,0,0,0-.08.139" transform="translate(-2584.478 -482.574)" fill="#040504"/>
      <path id="Trazado_886010" data-name="Trazado 886010" d="M3536.094,1057.1h0Z" transform="translate(-2640.786 -532.589)" fill="#040504"/>
      <path id="Trazado_886011" data-name="Trazado 886011" d="M3232.191,901.047c-.015-.027-.027-.054-.044-.08l-.224.148c.009.02.021.038.031.057.04-.023.078-.045.117-.065s.079-.04.12-.06" transform="translate(-2370.359 -393.778)" fill="#040504"/>
      <path id="Trazado_886012" data-name="Trazado 886012" d="M3231.754,900.9c0,.01.006.019.01.029l0,.008.219-.15-.006-.007c-.039.019-.078.038-.115.058l-.113.062" transform="translate(-2370.208 -393.608)" fill="#040504"/>
      <path id="Trazado_886013" data-name="Trazado 886013" d="M3279.074,1007.293c.1-.016.2-.032.3-.046,0-.007,0-.014,0-.02a.211.211,0,0,0-.06-.027.218.218,0,0,0-.238.093" transform="translate(-2412.279 -488.219)" fill="#040504"/>
    </g>
  </g>
</svg>
