<svg xmlns="http://www.w3.org/2000/svg" xmlns:xlink="http://www.w3.org/1999/xlink" width="1328" height="1258" viewBox="0 0 1328 1258">
  <defs>
    <clipPath id="clip-path">
      <rect id="Rect치ngulo_402819" data-name="Rect치ngulo 402819" width="1328" height="1258" rx="72" transform="translate(-5817 -13772)" fill="#fff"/>
    </clipPath>
  </defs>
  <g id="fnd-1" transform="translate(4907.5 16311.333)">
    <g id="Enmascarar_grupo_1098950" data-name="Enmascarar grupo 1098950" transform="translate(909.5 -2539.333)" opacity="0.18" clip-path="url(#clip-path)">
      <rect id="Rect치ngulo_402818" data-name="Rect치ngulo 402818" width="1328" height="1258" rx="72" transform="translate(-5817 -13772)" fill="#fff"/>
      <path id="Trazado_887848" data-name="Trazado 887848" d="M529.669,736.115c19.719,13.014,38.931,7.455,58.076,6.507,27.726-1.368,55.628-2.426,83.331-.949,33.461,1.721,66.238.221,96.919-13.763,14.381-6.551,26.711-17.469,40.585-25.322A133.785,133.785,0,0,1,836.373,691.3c11.249-3.353,22.52,3.816,23.447,15.352,2.8,35.049-3.441,67.87-27.108,95.4-16.036,18.682-37.784,27.77-60.569,35.159q-39.8,12.936-79.273,26.667c-32.623,11.315-65.818,19.432-100.338,22.454-16.918,1.5-33.593,5.669-50.511,7.411-21.462,2.206-43.078,1.985-63.877-4.522-21.065-6.595-41.732-14.447-62.62-21.616-8.007-2.757-16.322-4.764-24.219-7.808-29.843-11.514-61.451-18.66-89.2-35.49-5.073-3.066-10.455-5.624-15.682-8.426-7.1-3.794-11.514.154-14.734,5.668-10.984,18.9-21.969,37.828-32.534,57-11.448,20.8-23.072,41.578-33.417,62.951a320.175,320.175,0,0,0-19.189,48.393c-4.147,14.05-4.654,29.115-7.764,43.541-1.191,5.558-4.522,11.029-8.007,15.683-5.161,6.882-14.139,7.7-20.756,1.963-14.381-12.462-22.255-27.02-18.792-47.4,3.463-20.447,12.661-38.512,19.873-57.415a403.84,403.84,0,0,1,19.5-43.739c8.051-15.264,18.153-29.424,26.557-44.533q22.3-39.968,43.43-80.6c2.669-5.1-8.139-14.624-8.249-15.484-1.941-13.477-14.447-18.241-22.256-26.645-14.447-15.595-31.431-29.336-40.3-48.967a616.682,616.682,0,0,1-24.9-65.245c-17.535-54.5-22.631-111.168-27.285-167.832-1.963-24.064-.265-48.195,7.433-71.068,4.411-13.124,11.514-25.763,19.543-37.1,13.124-18.572,27.792-36.063,42.129-53.731,16.631-20.557,39.835-17.337,53.974,2.8,14.977,21.285,21.55,45.041,23.6,71.024a341.087,341.087,0,0,1-4.522,89.111c-4.5,24.373-4.632,49.606-6,74.531-.9,16.7-.971,33.483-.662,50.246.22,12.771,1.831,25.454,9.286,36.549,7.191,10.742,13.345,10.676,19.256-.53,9.881-18.748,12.727-39.2,14.6-59.929,1.787-20.006,4.411-39.945,5.889-59.973,2.051-28.079,3.308-56.223,5.029-84.3,1.588-25.7,3-51.393,5.161-77.023,1.059-12.484,3.485-24.88,5.492-37.276,5.206-32.38,18.969-61.186,36.835-88.361,13.036-19.851,25.652-39.967,38.159-60.172,10.345-16.719,25.763-27.02,42.769-35.8,17.381-8.977,34.277-18.859,51.68-27.836,19.852-10.257,39.659-20.756,60.172-29.557,10.962-4.7,21.792-.088,30.593,7.918,12.176,11.051,8.955,22.829,3.353,37.872-7.543,20.337-16.609,40.1-24.02,60.481-4.875,13.389-8.183,27.373-11.8,41.2-3.9,15.043-8.007,30.086-10.874,45.349-5.867,31.277-18.7,59.576-33.924,87.236-14.513,26.358-28.277,53.2-36.262,82.493-4.632,16.984-9.926,33.836-13.7,51-1.412,6.485.066,13.83,1.323,20.535.794,4.257,4.235,5.051,8.338,2.492,9.97-6.242,15.815-15.7,19.675-26.2,6.573-17.91,11.139-36.659,18.7-54.128,8.977-20.756,20.314-40.541,30.461-60.834,11.845-23.689,24.285-47.092,35.048-71.266,16.124-36.173,31.3-73.009,59.643-101.617a668.4,668.4,0,0,1,60.833-53.864c29.2-23.005,62.29-39.614,97.073-52.672,19.124-7.191,39.2-9.749,59.334-12.793,29.137-4.434,57.9-11.36,86.772-17.4,15.771-3.286,24.572.022,27.086,17.138a180.39,180.39,0,0,1-8.183,85.515c-6.419,18.771-16.653,36.35-26.4,53.8-23.071,41.225-45.967,82.6-70.649,122.9-20.006,32.689-40.563,65.443-64.539,95.176-17.292,21.462-40.474,38.225-61.318,56.753-13.609,12.065-27.946,23.292-41.512,35.38-9.308,8.271-20.182,12.881-31.961,15.55-19.013,4.257-33.836,14.558-45.349,30-4.853,6.529-3.552,11.051,4.654,11.051,9.771,0,20.116-1.235,29.181-4.632A384.455,384.455,0,0,0,685.7,537.822c33.13-17.778,66.171-35.8,98.639-54.768,27.373-16.014,49.077-38.225,66.171-65.135,14.955-23.557,30.615-46.849,53.048-64.12a139.217,139.217,0,0,1,30.681-17.91c13.344-5.558,29.446,4.456,31.078,18.925,1.059,9.264.4,18.925-.794,28.233-5.492,42.725-29.446,76.582-53.753,110.219-10.918,15.087-18.506,31.784-24,49.518-12.529,40.453-32.843,75.524-69.414,99.1-20.4,13.146-40.232,27.417-61.672,38.622-28.939,15.131-60.37,23.535-92.838,28.211-37.188,5.338-75.1,5.338-111.609,15.506-4.433,1.235-9.2,1.831-13.19,3.948-3.22,1.632-5.492,5.1-8.382,7.941" transform="translate(-6118.849 -13600.176)" fill="#f6faea"/>
      <path id="Trazado_887849" data-name="Trazado 887849" d="M1220.006,642.993H916.242l293.417-78.618-4.4-16.429L911.836,626.564l263.07-151.883-8.5-14.73L903.333,611.834l214.8-214.794-12.023-12.026L891.313,599.808l151.88-263.068-14.73-8.5L876.583,591.305,955.2,297.894l-16.429-4.405L860.152,586.916V283.141H843.143V586.9L764.524,293.489,748.1,297.894l78.62,293.412L674.836,328.238l-14.73,8.5,151.88,263.068L597.194,385.015l-12.024,12.026,214.8,214.8L536.893,459.951l-8.5,14.73L791.46,626.564,498.044,547.946l-4.4,16.429,293.413,78.618H483.29V660H787.055L493.642,738.62l4.4,16.429,293.408-78.618L528.39,828.309l8.5,14.729L799.968,691.153l-214.8,214.8,12.024,12.024,214.8-214.8L660.106,966.254l14.73,8.5L826.716,711.69,748.1,1005.1l16.428,4.4L843.143,716.1v303.759h17.009V716.082l78.623,293.423,16.429-4.4L876.583,711.69l151.88,263.067,14.73-8.5L891.3,703.176l214.8,214.8,12.023-12.024-214.8-214.8L1166.4,843.038l8.5-14.729L911.844,676.431l293.409,78.618,4.4-16.429L916.242,660h303.765Z" transform="translate(-5308.648 -14092.498)" fill="#f6faea"/>
      <g id="Elipse_11704" data-name="Elipse 11704" transform="translate(-5577 -14346)" fill="#56681c" stroke="#707070" stroke-width="1" opacity="0.15" style="mix-blend-mode: hard-light;isolation: isolate">
        <circle cx="484" cy="484" r="484" stroke="none"/>
        <circle cx="484" cy="484" r="483.5" fill="none"/>
      </g>
      <g id="Elipse_11705" data-name="Elipse 11705" transform="translate(-5725 -12744)" fill="#56681c" stroke="#707070" stroke-width="1" opacity="0.15" style="mix-blend-mode: hard-light;isolation: isolate">
        <circle cx="484" cy="484" r="484" stroke="none"/>
        <circle cx="484" cy="484" r="483.5" fill="none"/>
      </g>
      <path id="Trazado_887850" data-name="Trazado 887850" d="M501.865,448.237c-1.121-8.461-2.371-17.491-3.475-26.537-.812-6.513-.958-13.106-2.241-19.521-1.868-9.355-8.8-15.672-15.055-22.218-10.67-11.157-22.981-21.048-32.076-33.342-12.327-16.7-21.941-35.356-33.326-52.766-12.229-18.726-17.15-39.5-17.378-61.293-.179-17.248,2.144-34.544,8.234-50.834,8.2-21.893,30.614-30.841,52.23-21.47a82.8,82.8,0,0,1,31.264,23.63,341,341,0,0,1,44.142,69.543c6.837,14.194,9,29.639,10.264,45.247a219.391,219.391,0,0,1-2.907,56.7c-2.4,13.318-6.4,26.424-10.7,39.287-7.016,21.032-6.5,41.787.487,62.511,3.752,11.206,9.631,21.892,11.791,33.342,2.988,15.948,9.079,30.646,14.958,45.377C565.5,554.582,575,572.447,582.76,591.01c3.784,9.078,9.663,18.141,4.791,29.136-1.137,2.582.877,6.529,1.364,9.858.909,6.042-1.494,10.492-6.61,11.547-5.489,1.153-8.429-2.306-9.631-6.9-2.29-8.835-7.974-15.494-13.545-22.217-12.278-14.8-19.992-31.735-24.491-50.314-1.77-7.308-3.151-15.234-11.515-18.222-15.347-5.457-30.452-10.313-47.521-6.09-19.245,4.758-39.01,7.471-58.613,10.816-13.512,2.306-27.073,4.515-40.683,6.188-30.793,3.784-61.6,7.649-92.491,10.654-21.405,2.079-43.006,3.329-64.362-.812a102.689,102.689,0,0,1-22.266-6.707c-10.134-4.515-15.331-13.935-19.115-23.777a83.784,83.784,0,0,1-5.457-34.008c.845-19.586,11.206-31.686,29.526-37.143,16.192-4.807,33.034-8.267,49.632-4.937,14.925,2.988,29.526,8.364,43.671,14.162,21.876,9,44.045,16.436,67.805,17.443,14.812.633,29.672.13,44.516.244,5.636.065,11.271.357,16.907.568,16.484.633,33.066.455,49.437,2.176,8.689.942,17.037,5.116,25.514,7.974,1.4.455,2.6,1.575,4.791,1.267-7.292-6.545-14.552-13.122-21.86-19.619-8.007-7.113-17.28-10.41-28-12.116a611.222,611.222,0,0,1-63.063-13.171c-29.591-8.023-58.4-19.083-88.155-26.278-26.18-6.3-49.551-17.979-71.525-32.271-21.081-13.707-41.625-28.194-65.044-37.581C141.628,350.825,119.183,336,95.877,322.647c-20.382-11.71-37.922-26.326-51.37-45.539-6.951-9.923-14.016-20.025-15.542-32.628C26.951,228,32.879,214.175,43.858,202.417c12.067-12.96,27.09-19.132,44.971-18.807,31.247.568,58.905,10.037,81.35,32.335,15.413,15.283,27.561,33.147,38.068,52.052,12.993,23.338,28.454,44.419,49.534,61.423,11.174,9,20.821,19.911,30.744,30.37,14,14.747,27.236,30.208,41.544,44.63,8.981,9.046,20.723,13.87,33.245,16.517q41.487,8.892,82.942,17.93c1.413.309,2.729,1.088,4.71.6-6.9-4.937-13.447-10.508-20.756-14.73a135.159,135.159,0,0,1-38.247-33.375c-13.821-17.491-30.322-31.377-47.586-44.922-13.431-10.54-23.6-24.2-32.985-38.393-9.306-14.065-18.986-27.918-28.015-42.161-6.513-10.281-12.132-21.129-18.385-31.6-2.274-3.784-5.213-7.178-7.844-10.768-8.64-11.71-17.556-23.241-25.855-35.21-9.842-14.195-11.482-30.874-12.262-47.407a198.662,198.662,0,0,1,1.315-33.748c1.786-14.211,6.578-27.8,15.542-39.075C247.7,53.228,262.735,47.382,285.1,57.484c22.266,10.053,35.876,27.9,45.409,49.226,10.118,22.591,14.032,46.9,16.777,71.281,1.754,15.445.909,31.215,3.037,46.562a420.587,420.587,0,0,0,10.865,54.342c5.554,20.106,11.856,40.245,20.2,59.344,9.923,22.656,27.431,39.985,46.579,55.332,9.939,8.007,20.577,15.1,30.841,22.7,14.406,10.638,28.762,21.357,43.054,31.962" transform="matrix(0.966, -0.259, 0.259, 0.966, -5171.608, -13105.526)" fill="#f6faea"/>
    </g>
  </g>
</svg>
