<svg xmlns="http://www.w3.org/2000/svg" xmlns:xlink="http://www.w3.org/1999/xlink" width="262.388" height="50" viewBox="0 0 262.388 50">
  <defs>
    <linearGradient id="linear-gradient" x1="-0.129" y1="0.5" x2="0.854" y2="0.5" gradientUnits="objectBoundingBox">
      <stop offset="0" stop-color="#59b4f1"/>
      <stop offset="0.346" stop-color="#b4d549"/>
      <stop offset="1" stop-color="#f6faea"/>
    </linearGradient>
    <clipPath id="clip-path">
      <path id="Trazado_880765" data-name="Trazado 880765" d="M0,0H244.514c9.871,0,17.874,11.193,17.874,25s-8,25-17.874,25H0Z" fill="url(#linear-gradient)"/>
    </clipPath>
    <linearGradient id="linear-gradient-2" x1="-0.432" y1="0.5" x2="0.683" y2="0.5" gradientUnits="objectBoundingBox">
      <stop offset="0" stop-color="#fff" stop-opacity="0"/>
      <stop offset="1" stop-color="#eef7fe"/>
    </linearGradient>
  </defs>
  <g id="Enmascarar_grupo_1098891" data-name="Enmascarar grupo 1098891" clip-path="url(#clip-path)">
    <path id="Trazado_880766" data-name="Trazado 880766" d="M0,0H244.514c9.871,0,17.874,11.193,17.874,25s-8,25-17.874,25H0Z" transform="translate(292)" fill="url(#linear-gradient-2)"/>
    <path id="Trazado_880764" data-name="Trazado 880764" d="M96.011,72.655c-.41-1.335-.857-2.761-1.278-4.186-.306-1.026-.493-2.049-.883-3.071-.568-1.491-1.987-2.636-3.288-3.8-2.219-1.983-4.706-3.811-6.665-5.931-2.656-2.879-4.864-6-7.365-8.964a20.331,20.331,0,0,1-4.66-9.895,16.826,16.826,0,0,1,.27-7.657c.966-3.185,4.841-4.024,9.015-2.051a22.36,22.36,0,0,1,6.281,4.411,79.28,79.28,0,0,1,9.746,11.819,21.871,21.871,0,0,1,2.972,7.242A28.936,28.936,0,0,1,101,59.266a31.192,31.192,0,0,1-1,5.812c-.771,3.08-.172,6.3,1.606,9.673a51.264,51.264,0,0,1,2.962,5.439,46.463,46.463,0,0,0,3.832,7.376c1.809,3.069,3.977,6.061,5.844,9.118.911,1.495,2.2,3.038,1.582,4.619-.145.372.318,1.03.488,1.557.313.956-.018,1.585-.927,1.624a1.97,1.97,0,0,1-1.926-1.3,13.41,13.41,0,0,0-3.012-3.762,26.073,26.073,0,0,1-5.692-8.37c-.5-1.172-.945-2.431-2.544-3.1-2.934-1.216-5.81-2.333-8.824-2.094-3.4.268-6.941.208-10.439.25-2.411.029-4.833.041-7.277-.031-5.53-.162-11.061-.312-16.628-.6A50.819,50.819,0,0,1,47.276,83.8a27.115,27.115,0,0,1-4.228-1.577,9.539,9.539,0,0,1-4.067-4.139,13.647,13.647,0,0,1-1.821-5.388c-.321-3.007,1.277-4.625,4.489-5.024a21.548,21.548,0,0,1,8.941.441,64.286,64.286,0,0,1,8.317,3.248A52.078,52.078,0,0,0,71.71,75.7c2.72.457,5.42.74,8.133,1.118,1.03.147,2.066.329,3.1.5,3.025.5,6.048.873,9.078,1.536A33.442,33.442,0,0,1,96.874,80.7a2.286,2.286,0,0,0,.905.312c-1.49-1.188-2.975-2.381-4.467-3.563A14.145,14.145,0,0,0,87.907,74.9c-3.953-1.044-7.919-2.193-11.833-3.566-5.6-1.958-11.125-4.366-16.732-6.2A62.39,62.39,0,0,1,45.5,58.41a105.458,105.458,0,0,0-12.787-7.386,157.584,157.584,0,0,1-13.87-7.629A41.31,41.31,0,0,1,8.36,35.11c-1.51-1.7-3.045-3.435-3.629-5.42a5.551,5.551,0,0,1,1.7-6.14c1.889-1.71,4.482-2.3,7.754-1.816A30.115,30.115,0,0,1,29.82,28.706a55.345,55.345,0,0,1,8.213,8.968A50.616,50.616,0,0,0,48.566,48.37c2.258,1.662,4.284,3.583,6.35,5.44,2.914,2.619,5.705,5.33,8.668,7.906a17.43,17.43,0,0,0,6.47,3.359q7.79,2.381,15.578,4.784a2.16,2.16,0,0,0,.874.207c-1.38-.931-2.71-1.95-4.147-2.78A36,36,0,0,1,74.567,61.2a72.22,72.22,0,0,0-9.778-8.1,39.823,39.823,0,0,1-6.954-6.734c-2.04-2.4-4.144-4.775-6.138-7.2-1.438-1.747-2.728-3.56-4.123-5.331-.507-.64-1.126-1.236-1.693-1.854-1.862-2.019-3.769-4.018-5.575-6.069a15.544,15.544,0,0,1-3.389-7.624,26.5,26.5,0,0,1-.579-5.184,8.147,8.147,0,0,1,1.889-5.662c1.8-2.008,4.4-2.546,8.727-.443a23.063,23.063,0,0,1,9.485,8.71,41.5,41.5,0,0,1,4.792,11.424c.695,2.43.923,4.846,1.684,7.27a71.251,71.251,0,0,0,3.3,8.662,84.928,84.928,0,0,0,5.128,9.662c2.361,3.742,5.978,6.845,9.846,9.682,2.009,1.479,4.123,2.834,6.182,4.257,2.888,1.994,5.769,4,8.636,5.984" transform="translate(29.684 92.7) rotate(-120)" fill="#59b4f1" opacity="0.18" style="mix-blend-mode: multiply;isolation: isolate"/>
  </g>
</svg>
