<svg xmlns="http://www.w3.org/2000/svg" xmlns:xlink="http://www.w3.org/1999/xlink" width="367" height="52.344" viewBox="0 0 367 52.344">
  <defs>
    <linearGradient id="linear-gradient" x1="-0.129" y1="0.5" x2="0.854" y2="0.5" gradientUnits="objectBoundingBox">
      <stop offset="0" stop-color="#59b4f1"/>
      <stop offset="0.346" stop-color="#b4d549"/>
      <stop offset="1" stop-color="#f6faea"/>
    </linearGradient>
    <clipPath id="clip-path">
      <path id="Trazado_880765" data-name="Trazado 880765" d="M0,0H342a25,25,0,0,1,0,50H0Z" transform="translate(254.051 772)" fill="url(#linear-gradient)"/>
    </clipPath>
    <linearGradient id="linear-gradient-2" x1="-0.432" y1="0.5" x2="0.683" y2="0.5" gradientUnits="objectBoundingBox">
      <stop offset="0" stop-color="#59b4f1"/>
      <stop offset="1" stop-color="#eef7fe"/>
    </linearGradient>
  </defs>
  <g id="img-3" transform="translate(3378.938 17044.688)">
    <g id="Grupo_1102216" data-name="Grupo 1102216">
      <g id="Enmascarar_grupo_1098891" data-name="Enmascarar grupo 1098891" transform="translate(-3632.989 -17814.344)" clip-path="url(#clip-path)">
        <path id="Trazado_880766" data-name="Trazado 880766" d="M0,0H342a25,25,0,0,1,0,50H0Z" transform="translate(254.051 772)" fill="url(#linear-gradient-2)"/>
        <path id="Trazado_880764" data-name="Trazado 880764" d="M121.614,130.243c-.22-1.663-.466-3.438-.683-5.217-.16-1.28-.188-2.576-.441-3.837-.367-1.839-1.73-3.081-2.96-4.367-2.1-2.193-4.518-4.138-6.305-6.554-2.423-3.282-4.313-6.95-6.551-10.373a21.932,21.932,0,0,1-3.416-12.049,27.636,27.636,0,0,1,1.619-9.993,7.4,7.4,0,0,1,10.267-4.221,16.277,16.277,0,0,1,6.146,4.645,67.033,67.033,0,0,1,8.677,13.671,24.763,24.763,0,0,1,2.018,8.895,43.128,43.128,0,0,1-.571,11.145,55.7,55.7,0,0,1-2.1,7.723,18.8,18.8,0,0,0,.1,12.288c.737,2.2,1.893,4.3,2.318,6.554a47.951,47.951,0,0,0,2.94,8.92c1.459,3.675,3.327,7.187,4.853,10.836.744,1.785,1.9,3.566.942,5.728-.223.508.172,1.283.268,1.938.179,1.188-.294,2.062-1.3,2.27-1.079.227-1.657-.453-1.893-1.357a11.519,11.519,0,0,0-2.663-4.367,24.037,24.037,0,0,1-4.814-9.891c-.348-1.437-.619-2.995-2.264-3.582-3.017-1.073-5.986-2.027-9.341-1.2-3.783.935-7.669,1.469-11.522,2.126-2.656.453-5.322.888-8,1.216-6.053.744-12.109,1.5-18.182,2.094a43.874,43.874,0,0,1-12.652-.16,20.187,20.187,0,0,1-4.377-1.319c-1.992-.888-3.014-2.739-3.758-4.674a16.47,16.47,0,0,1-1.073-6.685c.166-3.85,2.2-6.229,5.8-7.3,3.183-.945,6.494-1.625,9.757-.971a47.518,47.518,0,0,1,8.585,2.784,39.435,39.435,0,0,0,13.329,3.429c2.912.125,5.833.026,8.751.048,1.108.013,2.216.07,3.323.112,3.24.124,6.5.089,9.718.428a24.811,24.811,0,0,1,5.016,1.568,1.731,1.731,0,0,0,.942.249c-1.433-1.287-2.861-2.58-4.3-3.857a10.319,10.319,0,0,0-5.5-2.382,120.152,120.152,0,0,1-12.4-2.589c-5.817-1.577-11.481-3.751-17.329-5.166a45.092,45.092,0,0,1-14.06-6.344c-4.144-2.695-8.183-5.542-12.786-7.388-4.942-1.976-9.354-4.891-13.936-7.515a30.607,30.607,0,0,1-10.1-8.952c-1.366-1.951-2.755-3.936-3.055-6.414A9.947,9.947,0,0,1,31.58,81.92a11.272,11.272,0,0,1,8.84-3.7C46.563,78.335,52,80.2,56.412,84.579A44.918,44.918,0,0,1,63.9,94.812a40.1,40.1,0,0,0,9.737,12.074,63.849,63.849,0,0,1,6.044,5.97c2.752,2.9,5.354,5.938,8.167,8.773a12.628,12.628,0,0,0,6.535,3.247q8.155,1.748,16.3,3.525a1.738,1.738,0,0,0,.926.118c-1.357-.971-2.643-2.066-4.08-2.9a26.569,26.569,0,0,1-7.519-6.561,53.811,53.811,0,0,0-9.354-8.831,31.013,31.013,0,0,1-6.484-7.547C82.342,99.92,80.439,97.2,78.664,94.4c-1.28-2.021-2.385-4.154-3.614-6.213-.447-.744-1.025-1.411-1.542-2.117-1.7-2.3-3.451-4.569-5.083-6.922-1.935-2.79-2.257-6.069-2.41-9.319a39.052,39.052,0,0,1,.259-6.634,15.225,15.225,0,0,1,3.055-7.681c2.321-2.918,5.277-4.067,9.674-2.082,4.377,1.976,7.052,5.485,8.926,9.677,1.989,4.441,2.758,9.22,3.3,14.012.345,3.036.179,6.136.6,9.153A82.678,82.678,0,0,0,93.96,96.954a86.846,86.846,0,0,0,3.972,11.666c1.951,4.454,5.392,7.86,9.156,10.877,1.954,1.574,4.045,2.969,6.063,4.463,2.832,2.091,5.654,4.2,8.464,6.283" transform="translate(264.446 915.666) rotate(-120)" fill="#59b4f1" opacity="0.18" style="mix-blend-mode: multiply;isolation: isolate"/>
      </g>
      <circle id="Elipse_11555" data-name="Elipse 11555" cx="3.417" cy="3.417" r="3.417" transform="translate(-3054.606 -17044.688)" fill="#fd6f2f"/>
    </g>
  </g>
</svg>
