<svg xmlns="http://www.w3.org/2000/svg" width="80.168" height="79.763" viewBox="0 0 80.168 79.763">
  <g id="banner-principal-decorativo-1" transform="translate(12081.167 11832.404)">
    <path id="Trazado_880142" data-name="Trazado 880142" d="M163.25,278.12h0a27.762,27.762,0,0,1-27.762-27.762V231.4a27.762,27.762,0,1,1,55.524,0v18.962A27.762,27.762,0,0,1,163.25,278.12" transform="translate(-12192.012 -12036.038)" fill="#fff"/>
    <path id="Trazado_880143" data-name="Trazado 880143" d="M187.854,219.137a69.25,69.25,0,0,1,8.406,1.443c3.039.851,5.186,1.663,5.333,2.063s-10.621,7-10.621,7Z" transform="translate(-12203.461 -12039.428)" fill="#ffc200"/>
    <path id="Trazado_880144" data-name="Trazado 880144" d="M158.07,276.65s-3.682,18.195-3.526,18.531,5.735,4.212,5.887,3.974-2.377-2.681-2.371-2.935,3.818,1.434,3.924,1.062-5.882-2.889-5.973-3.218,3.45-17.262,3.45-17.262Z" transform="translate(-12196.178 -12052.003)" fill="#ffc200"/>
    <path id="Trazado_880145" data-name="Trazado 880145" d="M171.355,277.432s-1.556,18.5-1.364,18.812,6.181,3.525,6.307,3.271-2.671-2.385-2.7-2.642,3.957.985,4.018.6-6.173-2.2-6.3-2.51,1.431-17.544,1.431-17.544Z" transform="translate(-12199.552 -12052.172)" fill="#ffc200"/>
    <path id="Trazado_880146" data-name="Trazado 880146" d="M110.678,228.476c4.211-3.369,7.578,6.019,8.568,5.745s-.613-4.851,4.418-5.258,5.33,22.833,7.352,21.9,24.268-11.306,24.478-13.2-3.056-13.955.711-18.524,18.292-4.107,18.692,4.375-10.183,10.554-9.762,11.951,10.994,13.693,6.162,21.594-17.84,11.063-29.522,5.738-15.536-6.9-17.641-6.945-20.1-2.035-20.185-6.457,13.091-.466,13.216-1.6-15.745-11.91-6.486-19.32" transform="translate(-12185.115 -12038.801)" fill="#cb5926"/>
    <path id="Trazado_880147" data-name="Trazado 880147" d="M110.678,228.476c4.211-3.369,7.578,6.019,8.568,5.745s-.613-4.851,4.418-5.258,5.33,22.833,7.352,21.9,24.268-11.306,24.478-13.2-3.056-13.955.711-18.524,18.292-4.107,18.692,4.375-10.183,10.554-9.762,11.951,10.994,13.693,6.162,21.594-17.84,11.063-29.522,5.738-15.536-6.9-17.641-6.945-20.1-2.035-20.185-6.457,13.091-.466,13.216-1.6-15.745-11.91-6.486-19.32" transform="translate(-12185.115 -12038.801)" fill="#fd6f2f"/>
    <path id="Trazado_880148" data-name="Trazado 880148" d="M135.681,257.793c-.852.393-1.4-3.52-2.121-8.138q-4.042,6.457-8.274,12.791c1.725.217,3.034.327,3.512.337,2.1.042,5.955,1.623,17.641,6.945a28.858,28.858,0,0,0,11.9,2.614c-.972-8.082-1.7-16.265-2.9-24.4-6.7,3.768-18.327,9.193-19.762,9.847" transform="translate(-12189.781 -12045.728)" fill="#cb5926"/>
    <path id="Trazado_880149" data-name="Trazado 880149" d="M182.965,222.448c.6-.188,1.9,2.512.667,2.632s-1.262-2.442-.667-2.632" transform="translate(-12202.311 -12040.15)"/>
    <path id="Trazado_880150" data-name="Trazado 880150" d="M156.588,259.7c-2.149.427-4.271-.4-6.38-.16a2.723,2.723,0,0,0-2.64,2.069c-.491,2.6,4.529,3.59,6.435,3.907,7.082.826,19.656-1.231,19.953-10.215-.045-1.953-.46-4.362-2.147-5.552a.18.18,0,0,1,.184-.309c2.651,1.9,3.023,6.237,1.931,9.093-2.978,6.922-13.332,8.51-20.027,7.7-2.389-.464-6.866-1.263-7.025-4.315a3.327,3.327,0,0,1,3.284-2.935c2.149-.184,4.265.706,6.359.364a.18.18,0,0,1,.073.352" transform="translate(-12194.501 -12046.048)"/>
    <path id="Trazado_880151" data-name="Trazado 880151" d="M181.247,247.553c2.228.209,2.292,3.259.784,4.394a.181.181,0,0,1-.256-.023.184.184,0,0,1-.016-.211c.746-1.287.926-3.107-.607-3.814a.183.183,0,0,1,.1-.346" transform="translate(-12201.975 -12045.641)"/>
  </g>
</svg>
