<svg xmlns="http://www.w3.org/2000/svg" width="93.725" height="94.599" viewBox="0 0 93.725 94.599">
  <g id="banner-principal-decorativo-4" transform="translate(-830.425 -192.128)">
    <path id="Trazado_880192" data-name="Trazado 880192" d="M88.546,172.47,59.368,143.292a17.685,17.685,0,0,0-25.01,0L5.18,172.47a17.685,17.685,0,0,0,0,25.01l29.178,29.178a17.685,17.685,0,0,0,25.01,0L88.546,197.48a17.685,17.685,0,0,0,0-25.01" transform="translate(830.424 54.889)" fill="#fff"/>
    <path id="Trazado_880193" data-name="Trazado 880193" d="M72.894,183.536c-.89-5.216-1.937-10.1-3-14.522-17.291,2.584-34.958,4.259-52.148,8.427,1.028,8.889,2.17,18.756,3.144,27.04,17.744-5.871,36.045-6.615,53.952-9.368-.564-3.369-1.2-7.2-1.95-11.577" transform="translate(830.424 54.889)" fill="#e6f9ff"/>
    <path id="Trazado_880194" data-name="Trazado 880194" d="M78.661,213.219c-.867-.579-1.852-6.355-3.817-18.106-17.907,2.753-36.208,3.5-53.952,9.368,1.234,10.475,2.2,18.413,2.324,18.6.372.56-3.163,6.14-2.046,6.618s5.21-2.71,6.139-3.274,12.467.379,25.3-1.483,22.141-3.719,23.07-4.278,6.7,1.116,7.442-.745-3.348-5.953-4.465-6.7" transform="translate(830.424 54.889)" fill="#238b7a"/>
    <path id="Trazado_880195" data-name="Trazado 880195" d="M63.777,146.424c-.186-2.419,2.234-8.373,0-9.114s-6.326,4.649-7.07,5.02-34.42,6.514-35.537,6.514-6.512-3.722-7.814-1.489c0,0,1.3,4.837,1.488,5.4.074.222,1.36,11.35,2.9,24.689,17.19-4.168,34.857-5.842,52.148-8.427-2.935-12.216-5.981-20.813-6.119-22.589" transform="translate(830.424 54.889)" fill="#238b7a"/>
    <path id="Trazado_880196" data-name="Trazado 880196" d="M78.661,213.219c-.661-.44-1.39-3.9-2.566-10.7a76.878,76.878,0,0,1-54.8,5.349c1.038,8.753,1.813,15.049,1.924,15.216.372.56-3.163,6.14-2.046,6.618s5.21-2.71,6.139-3.274,12.467.379,25.3-1.483,22.141-3.719,23.07-4.278,6.7,1.116,7.442-.745-3.348-5.953-4.465-6.7" transform="translate(830.424 54.889)" fill="#155449"/>
    <path id="Trazado_880197" data-name="Trazado 880197" d="M42.52,178.892c5.143-2.8,3.907,8.932,3.07,9.489s-9.21-6.141-3.07-9.489" transform="translate(830.424 54.889)" fill="#b4d448"/>
    <path id="Trazado_880198" data-name="Trazado 880198" d="M32.752,186.747c1.788-4.7,8.233,3.308,8.093,4.145s-10.605,2.455-8.093-4.145" transform="translate(830.424 54.889)" fill="#b4d448"/>
    <path id="Trazado_880199" data-name="Trazado 880199" d="M50.334,188.414c.583.8,9.768-1.708,6.978-6.313s-8.792,3.833-6.978,6.313" transform="translate(830.424 54.889)" fill="#b4d448"/>
    <path id="Trazado_880200" data-name="Trazado 880200" d="M35.489,188.376a59.345,59.345,0,0,1,9.489,4.425.205.205,0,0,1-.173.37c-1.66-.568-3.248-1.292-4.84-2.006-1.572-.76-3.148-1.507-4.649-2.419a.206.206,0,0,1,.173-.37" transform="translate(830.424 54.889)"/>
    <path id="Trazado_880201" data-name="Trazado 880201" d="M43.515,181.481a78.035,78.035,0,0,1,3.665,11.443.205.205,0,0,1-.389.125C46,191.2,45.378,189.3,44.742,187.4c-.588-1.915-1.188-3.826-1.616-5.791a.206.206,0,0,1,.389-.125" transform="translate(830.424 54.889)"/>
    <path id="Trazado_880202" data-name="Trazado 880202" d="M54.075,184.186A41.946,41.946,0,0,1,48.4,190.9a.206.206,0,0,1-.312-.264,40.573,40.573,0,0,1,2.665-3.506c.318-.27,3.51-4.332,3.325-2.949" transform="translate(830.424 54.889)"/>
    <path id="Trazado_880203" data-name="Trazado 880203" d="M16.775,149.256c3.138,1.051,6.268,2.272,9.535,2.061a56.947,56.947,0,0,0,9.723-1.6c6.463-1.438,12.918-3.361,19.595-3.542a.2.2,0,0,1,.018.408c-9.592.69-19.689,5.035-29.317,5.5-3.405.14-6.606-1.219-9.694-2.44a.2.2,0,0,1,.14-.383" transform="translate(830.424 54.889)"/>
    <path id="Trazado_880204" data-name="Trazado 880204" d="M58.666,144.19a7.3,7.3,0,0,1,2.681-3.811.212.212,0,0,1,.292.058c.041.58-.951,1.559-1.236,2.127-.262.229-1.6,2.644-1.737,1.626" transform="translate(830.424 54.889)"/>
    <path id="Trazado_880205" data-name="Trazado 880205" d="M22.532,228.182a3.687,3.687,0,0,1,2.587-2.443.215.215,0,0,1,.195.358c-.842.816-1.565,1.515-2.435,2.3a.216.216,0,0,1-.347-.216" transform="translate(830.424 54.889)"/>
    <path id="Trazado_880206" data-name="Trazado 880206" d="M76.213,218.746a34.636,34.636,0,0,1,4.836.967.21.21,0,0,1-.032.407,8.57,8.57,0,0,1-4.931-.986.21.21,0,0,1,.127-.388" transform="translate(830.424 54.889)"/>
    <path id="Trazado_880207" data-name="Trazado 880207" d="M25.139,150.257a9.251,9.251,0,0,1,.281,4.918.209.209,0,0,1-.408-.01,21.449,21.449,0,0,1-.265-2.418c.047-.342-.342-3.273.392-2.49" transform="translate(830.424 54.889)"/>
    <path id="Trazado_880208" data-name="Trazado 880208" d="M29.188,149.167a21.584,21.584,0,0,1,.415,4.852.208.208,0,0,1-.221.2c-.68.016-1.179-6.211-.194-5.048" transform="translate(830.424 54.889)"/>
    <path id="Trazado_880209" data-name="Trazado 880209" d="M39.228,147.441a5.587,5.587,0,0,1,.837,3.07c-.519,1.272-1.937-3.894-.837-3.07" transform="translate(830.424 54.889)"/>
    <path id="Trazado_880210" data-name="Trazado 880210" d="M54.161,144.1c.319.295,1.65,5.1.58,4.278-.315-.309-1.661-5.091-.58-4.278" transform="translate(830.424 54.889)"/>
    <path id="Trazado_880211" data-name="Trazado 880211" d="M40.6,146.834a4.419,4.419,0,0,1,1.142,3.326.2.2,0,0,1-.234.15.191.191,0,0,1-.132-.1,16.219,16.219,0,0,1-.692-1.557c-.063-.312-.88-2.2-.084-1.819" transform="translate(830.424 54.889)"/>
    <path id="Trazado_880212" data-name="Trazado 880212" d="M14.661,147.418c.352.328,3.16,6.525,1.86,5.74-.349-.335-3.174-6.524-1.86-5.74" transform="translate(830.424 54.889)"/>
    <path id="Trazado_880213" data-name="Trazado 880213" d="M62.411,144.54a11.5,11.5,0,0,1,.981-5.329.21.21,0,0,1,.4.1c-.009.447-.738,6.506-1.377,5.228" transform="translate(830.424 54.889)"/>
    <path id="Trazado_880214" data-name="Trazado 880214" d="M18.781,169.455c.54,4.42,1.861,14.517,2.233,18.81q.3,3.147.44,6.31a.2.2,0,0,1-.407.033l-1.562-12.526c-.478-4.185-.945-8.379-1.111-12.593a.2.2,0,0,1,.407-.034" transform="translate(830.424 54.889)"/>
    <path id="Trazado_880215" data-name="Trazado 880215" d="M65.463,156.238,68.479,166.4a91.3,91.3,0,0,1,2.428,10.353.2.2,0,0,1-.4.083c-.907-3.414-1.862-6.806-2.859-10.2-.946-3.405-1.935-6.814-2.582-10.307a.2.2,0,0,1,.4-.1" transform="translate(830.424 54.889)"/>
    <path id="Trazado_880216" data-name="Trazado 880216" d="M72.86,190.427c.97,2.747,1.082,5.656,1.4,8.516a.206.206,0,0,1-.4.087,22.359,22.359,0,0,1-.909-4.246c-.165-1.43-.345-2.835-.485-4.263a.207.207,0,0,1,.4-.094" transform="translate(830.424 54.889)"/>
    <path id="Trazado_880217" data-name="Trazado 880217" d="M29,224.179c9.086.368,18.29,1.612,27.285-.274a.2.2,0,0,1,.1.4c-6.675,1.91-13.74,1.613-20.582,1.017-2.285-.206-4.56-.471-6.834-.732a.2.2,0,0,1,.031-.407" transform="translate(830.424 54.889)"/>
  </g>
</svg>
