<svg xmlns="http://www.w3.org/2000/svg" xmlns:xlink="http://www.w3.org/1999/xlink" width="106.726" height="127.369" viewBox="0 0 106.726 127.369">
  <defs>
    <clipPath id="clip-path">
      <path id="Trazado_880191" data-name="Trazado 880191" d="M78.795,0C49.325,0,25.433,44.537,25.433,74.008v46.176a7.186,7.186,0,0,0,7.186,7.186h92.351a7.187,7.187,0,0,0,7.187-7.186V74.008c0-29.472-6.609-65.589-36.081-65.589Z" transform="translate(-25.433 -0.001)" fill="none"/>
    </clipPath>
  </defs>
  <g id="banner-principal-decorativo-3" transform="translate(-25.433 -0.001)">
    <g id="Grupo_1101889" data-name="Grupo 1101889" transform="translate(25.433 0.001)" clip-path="url(#clip-path)">
      <path id="Trazado_880164" data-name="Trazado 880164" d="M124.349,124.147H32a7.186,7.186,0,0,1-7.186-7.186V70.785a53.363,53.363,0,1,1,106.725,0v46.176a7.186,7.186,0,0,1-7.186,7.186" transform="translate(-25.566 3.711)" fill="#fff"/>
      <path id="Trazado_880165" data-name="Trazado 880165" d="M41.126,94.373s2.606-6.868,6.633-9.239,7.817,1.895,8.763,1.422.238-3.317,2.607-4.264,8.766,0,8.766,0S74.528,69.027,83.764,69.5s15.873,15.161,17.057,15.4,6.393-.712,8.052.473,4.264,9,4.264,9-45.008,8.29-72.012,0" transform="translate(-22.089 14.805)" fill="#cb5926"/>
      <path id="Trazado_880166" data-name="Trazado 880166" d="M65.775,91.112s13.921-3.08,17-3.08,8.052,2.606,9.236,3.08,12.082-3.34,14.214-4.038,5.923,5.7,4.975,7.117-7.106,18.476-6.87,22.028-4.5,37.665-4.5,37.665Z" transform="translate(-16.837 18.541)" fill="#cec26a"/>
      <path id="Trazado_880167" data-name="Trazado 880167" d="M35.857,93.076c.824-2.146,9.159-5.056,11.368-5.37s12.32,3.159,14.53,2.686S74.7,85.453,76.6,87.684s19.581,23.4,22.107,32.872,5.37,26.844,6.633,28.107,5.368,6.319,2.842,9.792-10.737,1.582-18.949,1.895-43.587,0-46.114-3.473,5.054-11.373,4.736-13.9S42.8,132.87,41.54,129.4s-1.579-17.372-2.527-20.845-4.736-11.369-3.156-15.475" transform="translate(-23.293 18.55)" fill="#e8df89"/>
      <path id="Trazado_880168" data-name="Trazado 880168" d="M33.688,54.1c7.221-15.343,21.082-4.5,26.057,0S70.879,66.179,70.406,67.362s-14.214,5.449-27.242,3.79-13.265-9-9.475-17.055" transform="translate(-24.127 9.835)" fill="#b4d448"/>
      <path id="Trazado_880169" data-name="Trazado 880169" d="M56.5,53.856A37.446,37.446,0,0,0,46.8,47.3c1.531,7.718,2.072,15.929,3.175,23.859,9.213-.6,16.828-3.159,17.18-4.035.473-1.184-5.686-8.764-10.661-13.265" transform="translate(-20.879 10.077)" fill="#8ba72e"/>
      <path id="Trazado_880170" data-name="Trazado 880170" d="M72.447,52.293c2.375.148,30.32-37.664,4.5-43.824s-8.291,43.586-4.5,43.824" transform="translate(-17.404 1.691)" fill="#b4d448"/>
      <path id="Trazado_880171" data-name="Trazado 880171" d="M72.363,48.769c.9.056,5.486-5.361,9.416-12.434-5.533-4.844-12.116-8.217-18.266-11.851,1.634,11.689,6.958,24.166,8.851,24.285" transform="translate(-17.319 5.216)" fill="#8ba72e"/>
      <path id="Trazado_880172" data-name="Trazado 880172" d="M79.4,57.031c-.436-.873,11.844-31.979,27.005-19.425S81.295,60.82,79.4,57.031" transform="translate(-13.936 7.376)" fill="#b4d448"/>
      <path id="Trazado_880173" data-name="Trazado 880173" d="M79.4,56.637c.822,1.641,8.838.57,16.435-2.19-1.128-5.993-2.444-11.983-3.239-17.975-8.112,5.55-13.487,19.581-13.2,20.165" transform="translate(-13.936 7.77)" fill="#8ba72e"/>
      <path id="Trazado_880174" data-name="Trazado 880174" d="M69.83,94.8V36.228c0-11.843.239-18.24,1.186-18.476s0,12.792,0,18.476.419,58.569.419,58.569Z" transform="translate(-15.973 3.781)" fill="#6b0000"/>
      <path id="Trazado_880175" data-name="Trazado 880175" d="M45.157,56.428c7.042,2.163,15.68,5.232,22.634,7.783q3.741,1.383,7.448,2.863a.251.251,0,0,1-.167.473q-3.81-1.186-7.591-2.459c-3.77-1.269-11.314-3.936-15.042-5.319Q48.7,58.385,44.99,56.9a.252.252,0,0,1,.167-.473" transform="translate(-21.298 12.019)"/>
      <path id="Trazado_880176" data-name="Trazado 880176" d="M98.683,43.384c-6.433,4.952-14.673,10.8-21.374,15.455q-3.616,2.5-7.291,4.918a.251.251,0,0,1-.291-.409q3.5-2.671,7.042-5.268c3.536-2.589,10.725-7.7,14.331-10.189q3.616-2.5,7.292-4.917c.252-.172.55.22.291.41" transform="translate(-16.016 9.146)"/>
      <path id="Trazado_880177" data-name="Trazado 880177" d="M37.9,103.245c.245.7.457,1.334.6,1.857.946,3.473,1.264,17.372,2.527,20.845s6,11.056,6.316,13.583-7.264,10.423-4.738,13.9,37.9,3.788,46.115,3.472c1-.038,2-.042,2.993-.028C82.37,133.411,59.946,116.938,37.9,103.245" transform="translate(-22.777 21.998)" fill="#cec26a"/>
      <path id="Trazado_880178" data-name="Trazado 880178" d="M62.228,83.2a2.583,2.583,0,0,1,4.454.355.263.263,0,0,1-.392.313,3.3,3.3,0,0,0-1.8-.747,4.742,4.742,0,0,0-1.957.474.263.263,0,0,1-.311-.4" transform="translate(-17.604 17.491)"/>
      <path id="Trazado_880179" data-name="Trazado 880179" d="M65.939,78.689a.936.936,0,0,1,1.8-.4.312.312,0,0,1-.313.393,2.02,2.02,0,0,0-1.04.234.311.311,0,0,1-.448-.228" transform="translate(-16.804 16.557)"/>
      <path id="Trazado_880180" data-name="Trazado 880180" d="M80.52,85.057c.6-2.179,3.5-4.252,5.517-2.438a3.755,3.755,0,0,1,1.1,1.988.253.253,0,0,1-.469.177c-1.587-3.028-4.111-1.763-5.7.5a.255.255,0,0,1-.449-.226" transform="translate(-13.699 17.455)"/>
      <path id="Trazado_880181" data-name="Trazado 880181" d="M43.34,118.623c4.513,6.048,11.9,8.946,18.44,12.3,6.748,3.346,13.836,6.222,19.871,10.845.243.187-.041.6-.306.4-5.314-3.73-14.119-7.412-20.027-10.288-6.626-3.429-14.136-6.519-18.412-13a.252.252,0,0,1,.433-.257" transform="translate(-21.718 25.248)"/>
      <path id="Trazado_880182" data-name="Trazado 880182" d="M52.449,130.655a84.867,84.867,0,0,1,15.9,13.762c.2.222-.127.564-.354.355-5.224-4.664-10.475-9.219-15.844-13.715a.253.253,0,0,1,.3-.4" transform="translate(-19.759 27.829)"/>
      <path id="Trazado_880183" data-name="Trazado 880183" d="M84.159,110.279c4.265-4.178,9.6-6.929,14.208-10.657a.253.253,0,0,1,.34.37c-4.14,4.32-9.49,7.111-14.22,10.668a.253.253,0,0,1-.328-.381" transform="translate(-12.936 21.214)"/>
      <path id="Trazado_880184" data-name="Trazado 880184" d="M90.953,107.53a4.466,4.466,0,0,1,2.908-2.668.266.266,0,0,1,.319.2c-.176.678-.956,1.075-1.362,1.582-.307.18-1.841,1.949-1.865.887" transform="translate(-11.472 22.341)"/>
      <path id="Trazado_880185" data-name="Trazado 880185" d="M34.052,56.692c-1.111,8.912,6.329,10.28,13.442,9.188a.252.252,0,0,1,.1.491c-4.8,1.351-12.139,1.245-13.975-4.456a10.321,10.321,0,0,1-.063-5.306.252.252,0,0,1,.495.082" transform="translate(-23.769 12.02)"/>
      <path id="Trazado_880186" data-name="Trazado 880186" d="M72.6,41.452a87.608,87.608,0,0,0,8.017-16.506.252.252,0,0,1,.482.141,41.089,41.089,0,0,1-8.09,16.657.252.252,0,0,1-.409-.291" transform="translate(-15.392 5.279)"/>
      <path id="Trazado_880187" data-name="Trazado 880187" d="M86.423,52.02a75.357,75.357,0,0,0,16.024-6.126.252.252,0,0,1,.261.429,35.782,35.782,0,0,1-16.191,6.19.253.253,0,0,1-.093-.494" transform="translate(-12.476 9.772)"/>
      <path id="Trazado_880188" data-name="Trazado 880188" d="M40.022,47.618A12.991,12.991,0,0,1,51.7,51.024a.568.568,0,0,1-.605.918,75.622,75.622,0,0,0-11.062-3.224.569.569,0,0,1-.012-1.1" transform="translate(-22.413 10.081)" fill="#fff"/>
      <path id="Trazado_880189" data-name="Trazado 880189" d="M65.328,14.526c.539-3.634,5.429-4.946,8.2-3.129a.576.576,0,0,1-.227,1.069,19.182,19.182,0,0,0-3.9.6,7.869,7.869,0,0,0-3.108,1.975.582.582,0,0,1-.966-.513" transform="translate(-16.935 2.254)" fill="#fff"/>
      <path id="Trazado_880190" data-name="Trazado 880190" d="M94.794,35.476a6.2,6.2,0,0,1,4.287,1.02,6.4,6.4,0,0,1,2.7,3.471.585.585,0,0,1-.9.63,53.544,53.544,0,0,0-6.274-4.037.586.586,0,0,1,.188-1.083" transform="translate(-10.757 7.544)" fill="#fff"/>
    </g>
  </g>
</svg>
