<svg xmlns="http://www.w3.org/2000/svg" xmlns:xlink="http://www.w3.org/1999/xlink" width="1600" height="220" viewBox="0 0 1600 220">
  <defs>
    <clipPath id="clip-path">
      <path id="Recurso_1" data-name="Recurso 1" d="M0,0H1600V220H0Z" transform="translate(-10339 -12116)" fill="#aed139"/>
    </clipPath>
    <linearGradient id="linear-gradient" x1="0.752" y1="0.373" x2="-0.063" y2="1.365" gradientUnits="objectBoundingBox">
      <stop offset="0" stop-color="#aed139"/>
      <stop offset="1" stop-color="#2b340e"/>
    </linearGradient>
    <clipPath id="clip-path-2">
      <path id="Trazado_880191" data-name="Trazado 880191" d="M115.927,0C65.95,0,25.433,75.527,25.433,125.507v78.307A12.186,12.186,0,0,0,37.62,216H194.235a12.188,12.188,0,0,0,12.189-12.187V125.507c0-49.98-11.208-111.229-61.187-111.229Z" transform="translate(-25.433 -0.001)" fill="none"/>
    </clipPath>
  </defs>
  <g id="Grupo_1102114" data-name="Grupo 1102114" transform="translate(10898 12232)">
    <g id="Enmascarar_grupo_1098885" data-name="Enmascarar grupo 1098885" transform="translate(-559 -116)" clip-path="url(#clip-path)">
      <path id="Trazado_880590" data-name="Trazado 880590" d="M24.254,0H1660.746C1674.141,0,1685,5.58,1685,12.462V320.085c0,6.883-10.859,12.462-24.254,12.462H24.254C10.859,332.547,0,326.967,0,320.085V12.462C0,5.58,10.859,0,24.254,0Z" transform="translate(-10381.5 -12167.563)" fill="url(#linear-gradient)"/>
      <g id="Elipse_11633" data-name="Elipse 11633" transform="translate(-10058 -12351)" fill="#aed139" stroke="#707070" stroke-width="1" opacity="0.37" style="mix-blend-mode: hard-light;isolation: isolate">
        <circle cx="333" cy="333" r="333" stroke="none"/>
        <circle cx="333" cy="333" r="332.5" fill="none"/>
      </g>
      <g id="Elipse_11634" data-name="Elipse 11634" transform="translate(-10409 -12395)" fill="#aed139" stroke="#707070" stroke-width="1" opacity="0.37" style="mix-blend-mode: hard-light;isolation: isolate">
        <circle cx="333" cy="333" r="333" stroke="none"/>
        <circle cx="333" cy="333" r="332.5" fill="none"/>
      </g>
      <g id="Elipse_11635" data-name="Elipse 11635" transform="translate(-9508 -12783)" fill="#56681c" stroke="#707070" stroke-width="1" opacity="0.37" style="mix-blend-mode: hard-light;isolation: isolate">
        <circle cx="484" cy="484" r="484" stroke="none"/>
        <circle cx="484" cy="484" r="483.5" fill="none"/>
      </g>
      <path id="Trazado_880593" data-name="Trazado 880593" d="M501.865,448.237c-1.121-8.461-2.371-17.491-3.475-26.537-.812-6.513-.958-13.106-2.241-19.521-1.868-9.355-8.8-15.672-15.055-22.218-10.67-11.157-22.981-21.048-32.076-33.342-12.327-16.7-21.941-35.356-33.326-52.766-12.229-18.726-17.15-39.5-17.378-61.293-.179-17.248,2.144-34.544,8.234-50.834,8.2-21.893,30.614-30.841,52.23-21.47a82.8,82.8,0,0,1,31.264,23.63,341,341,0,0,1,44.142,69.543c6.837,14.194,9,29.639,10.264,45.247a219.391,219.391,0,0,1-2.907,56.7c-2.4,13.318-6.4,26.424-10.7,39.287-7.016,21.032-6.5,41.787.487,62.511,3.752,11.206,9.631,21.892,11.791,33.342,2.988,15.948,9.079,30.646,14.958,45.377C565.5,554.582,575,572.447,582.76,591.01c3.784,9.078,9.663,18.141,4.791,29.136-1.137,2.582.877,6.529,1.364,9.858.909,6.042-1.494,10.492-6.61,11.547-5.489,1.153-8.429-2.306-9.631-6.9-2.29-8.835-7.974-15.494-13.545-22.217-12.278-14.8-19.992-31.735-24.491-50.314-1.77-7.308-3.151-15.234-11.515-18.222-15.347-5.457-30.452-10.313-47.521-6.09-19.245,4.758-39.01,7.471-58.613,10.816-13.512,2.306-27.073,4.515-40.683,6.188-30.793,3.784-61.6,7.649-92.491,10.654-21.405,2.079-43.006,3.329-64.362-.812a102.689,102.689,0,0,1-22.266-6.707c-10.134-4.515-15.331-13.935-19.115-23.777a83.784,83.784,0,0,1-5.457-34.008c.845-19.586,11.206-31.686,29.526-37.143,16.192-4.807,33.034-8.267,49.632-4.937,14.925,2.988,29.526,8.364,43.671,14.162,21.876,9,44.045,16.436,67.805,17.443,14.812.633,29.672.13,44.516.244,5.636.065,11.271.357,16.907.568,16.484.633,33.066.455,49.437,2.176,8.689.942,17.037,5.116,25.514,7.974,1.4.455,2.6,1.575,4.791,1.267-7.292-6.545-14.552-13.122-21.86-19.619-8.007-7.113-17.28-10.41-28-12.116a611.222,611.222,0,0,1-63.063-13.171c-29.591-8.023-58.4-19.083-88.155-26.278-26.18-6.3-49.551-17.979-71.525-32.271-21.081-13.707-41.625-28.194-65.044-37.581C141.628,350.825,119.183,336,95.877,322.647c-20.382-11.71-37.922-26.326-51.37-45.539-6.951-9.923-14.016-20.025-15.542-32.628C26.951,228,32.879,214.175,43.858,202.417c12.067-12.96,27.09-19.132,44.971-18.807,31.247.568,58.905,10.037,81.35,32.335,15.413,15.283,27.561,33.147,38.068,52.052,12.993,23.338,28.454,44.419,49.534,61.423,11.174,9,20.821,19.911,30.744,30.37,14,14.747,27.236,30.208,41.544,44.63,8.981,9.046,20.723,13.87,33.245,16.517q41.487,8.892,82.942,17.93c1.413.309,2.729,1.088,4.71.6-6.9-4.937-13.447-10.508-20.756-14.73a135.159,135.159,0,0,1-38.247-33.375c-13.821-17.491-30.322-31.377-47.586-44.922-13.431-10.54-23.6-24.2-32.985-38.393-9.306-14.065-18.986-27.918-28.015-42.161-6.513-10.281-12.132-21.129-18.385-31.6-2.274-3.784-5.213-7.178-7.844-10.768-8.64-11.71-17.556-23.241-25.855-35.21-9.842-14.195-11.482-30.874-12.262-47.407a198.662,198.662,0,0,1,1.315-33.748c1.786-14.211,6.578-27.8,15.542-39.075C247.7,53.228,262.735,47.382,285.1,57.484c22.266,10.053,35.876,27.9,45.409,49.226,10.118,22.591,14.032,46.9,16.777,71.281,1.754,15.445.909,31.215,3.037,46.562a420.587,420.587,0,0,0,10.865,54.342c5.554,20.106,11.856,40.245,20.2,59.344,9.923,22.656,27.431,39.985,46.579,55.332,9.939,8.007,20.577,15.1,30.841,22.7,14.406,10.638,28.762,21.357,43.054,31.962" transform="matrix(-0.966, -0.259, 0.259, -0.966, -8742.256, -11641.433)" fill="#aed139"/>
      <path id="Trazado_880603" data-name="Trazado 880603" d="M233.253,317.217c-1.007-3.324-1.682-6.122-2.7-8.788-2.255-5.9-4.828-11.632-10.214-15.491-4.13-2.96-9.059-3.208-13.817-4.037-8.245-1.441-16.553-2.627-24.744-4.34-15.289-3.2-29.106-10.229-42.342-18.1-8.416-5.006-13.554-13.414-16.692-22.7-3.131-9.245-5.967-18.6-8.765-27.952-2.278-7.6-6.564-13.918-11.942-19.6-6.843-7.23-13.972-14.22-20.45-21.76-6.688-7.788-10.423-17.165-12.562-27.185-1.573-7.331-1.449-14.677-.643-22.093.635-5.827.674-11.717,1.271-17.552.69-6.8,1.116-13.678,3.991-20.079.914-2.03,2.046-3.673,4.355-3.921,2.519-.271,3.991,1.24,5.239,3.3,3.534,5.859,6.812,11.949,10.95,17.366a80.107,80.107,0,0,0,12.67,13.151,203.051,203.051,0,0,0,22.318,16.452,160.812,160.812,0,0,1,29.037,23.4c8.524,8.478,13.019,18.753,14.716,30.587,1.387,9.663,4.8,18.769,11.655,25.891,3.363,3.5,7.912,5.928,12.089,8.579,8.834,5.6,17.459,11.384,24.72,19.063a145.285,145.285,0,0,1,19.1,25.72,94.5,94.5,0,0,1,11.818,32.307,7.807,7.807,0,0,0,.984-2.077c.3-2.085.5-4.185.6-6.292.24-4.626.387-9.253.6-13.887.349-7.656-2.309-14.6-4.967-21.574-4.293-11.229-11.686-20.691-17.661-30.959-3.456-5.959-5.192-12.407-6.525-19.032-2.178-10.841.953-20.776,5.231-30.548,3.038-6.959,5.719-14.081,8.9-20.97a8.069,8.069,0,0,1,4.409-3.867c2.278-.728,3.882,1.108,4.743,3.247a122.068,122.068,0,0,0,13.484,24.736c4.936,7.013,10.2,13.8,14.871,20.985,6.447,9.888,12.531,20.055,15.956,31.462a69.566,69.566,0,0,1,2.317,13.468,158.77,158.77,0,0,1,1.093,20.458,193.159,193.159,0,0,1-2.526,22.5c-1.178,7.509-4.774,14.189-8.028,20.962-2.271,4.712-3.875,9.772-6.424,14.3a120.849,120.849,0,0,1-11.058,16.956c-4.882,6.013-5.8,12.345-4.239,19.567,3.255,15.1,8.687,29.471,14.034,43.892,2.263,6.091,4.037,12.639,3.046,19.094-1.255,8.222-3.611,16.281-5.688,24.356a34.443,34.443,0,0,1-2.929,7.1c-1.6,3.1-3.844,3.487-6.812,1.72a27.011,27.011,0,0,0-4.921-2.216c-4.991-1.751-6.06-4.076-4.216-8.919,1.821-4.774,4.092-9.493,5.014-14.453a60.9,60.9,0,0,0,.426-15.127,97.344,97.344,0,0,0-2.387-16.692,186.084,186.084,0,0,0-6.378-20.024,56.335,56.335,0,0,0-9.9-17.591,40.106,40.106,0,0,0-6.254-5.936,70.753,70.753,0,0,0-10.469-6.8c-6.812-3.386-13.817-1.379-20.76-.008-7.269,1.441-14.553,2.891-21.884,3.975a193.392,193.392,0,0,1-21.109,2.232,45.55,45.55,0,0,1-13.3-1.7,163.368,163.368,0,0,1-18.839-6.409c-7.54-3.069-12.321-9.346-16.119-16.15-3.9-6.967-7.029-14.352-10.617-21.5-1.062-2.116-2.534-4.022-3.8-6.029-3.394-5.347-2.3-10.26,3.208-13.352,8.641-4.859,25-6.06,33.307,3.309a123.579,123.579,0,0,1,10.066,12.98c5.363,7.982,12.252,13.538,22.179,13.236,4.006-.116,7.9-2.526,11.942-3.487,6.277-1.488,12.616-2.712,18.963-3.882,9.508-1.759,18.668-.31,27.479,3.5,1.8.775,3.464,1.875,5.9,3.216" transform="translate(-8794.102 -12271.129)" fill="#59b4f1"/>
      <g id="Grupo_1101897" data-name="Grupo 1101897" transform="translate(-9277.347 -12126.001)">
        <g id="Grupo_1101889" data-name="Grupo 1101889" transform="translate(162.852 0.001)" clip-path="url(#clip-path-2)">
          <path id="Trazado_880164" data-name="Trazado 880164" d="M193.614,198.413H37A12.186,12.186,0,0,1,24.81,186.226V107.918a90.5,90.5,0,1,1,180.991,0v78.307a12.186,12.186,0,0,1-12.187,12.187" transform="translate(-26.092 18.416)" fill="#fff"/>
          <path id="Trazado_880165" data-name="Trazado 880165" d="M41.126,111.69s4.419-11.648,11.249-15.668,13.257,3.213,14.861,2.411.4-5.624,4.421-7.231,14.865,0,14.865,0,11.249-22.5,26.912-21.693,26.918,25.711,28.926,26.114,10.841-1.208,13.656.8,7.231,15.264,7.231,15.264-76.326,14.059-122.122,0" transform="translate(-8.842 73.461)" fill="#cb5926"/>
          <path id="Trazado_880166" data-name="Trazado 880166" d="M65.775,93.959s23.608-5.223,28.834-5.223,13.656,4.419,15.664,5.223,20.49-5.663,24.1-6.848,10.045,9.659,8.437,12.07-12.051,31.333-11.65,37.357-7.632,63.874-7.632,63.874Z" transform="translate(17.217 91.996)" fill="#cec26a"/>
          <path id="Trazado_880167" data-name="Trazado 880167" d="M36.122,97.26c1.4-3.639,15.532-8.574,19.278-9.107s20.893,5.357,24.641,4.555S102,84.333,105.217,88.116s33.207,39.675,37.49,55.746,9.107,45.524,11.249,47.665,9.1,10.716,4.82,16.606-18.208,2.683-32.136,3.213-73.917,0-78.2-5.89,8.57-19.286,8.031-23.569S47.9,164.744,45.76,158.855s-2.678-29.461-4.285-35.351-8.031-19.28-5.353-26.244" transform="translate(-14.815 92.042)" fill="#e8df89"/>
          <path id="Trazado_880168" data-name="Trazado 880168" d="M35.167,59.618c12.247-26.019,35.752-7.632,44.189,0s18.881,20.488,18.079,22.5-24.1,9.241-46.2,6.427S28.74,73.278,35.167,59.618" transform="translate(-18.952 48.803)" fill="#b4d448"/>
          <path id="Trazado_880169" data-name="Trazado 880169" d="M63.243,58.42C59.738,55.248,53.628,50.226,46.8,47.3c2.6,13.088,3.514,27.013,5.384,40.461C67.812,86.74,80.725,82.4,81.322,80.916c.8-2.008-9.642-14.863-18.079-22.5" transform="translate(-2.84 50)" fill="#8ba72e"/>
          <path id="Trazado_880170" data-name="Trazado 880170" d="M78.941,83.156c4.028.251,51.418-63.872,7.632-74.318S72.512,82.752,78.941,83.156" transform="translate(14.405 8.394)" fill="#b4d448"/>
          <path id="Trazado_880171" data-name="Trazado 880171" d="M78.521,65.667c1.531.095,9.3-9.091,15.968-21.086-9.383-8.214-20.547-13.935-30.977-20.1,2.771,19.823,11.8,40.982,15.009,41.183" transform="translate(14.824 25.882)" fill="#8ba72e"/>
          <path id="Trazado_880172" data-name="Trazado 880172" d="M79.409,72.622C78.67,71.141,99.5,18.39,125.206,39.68S82.62,79.049,79.409,72.622" transform="translate(31.61 36.603)" fill="#b4d448"/>
          <path id="Trazado_880173" data-name="Trazado 880173" d="M79.409,70.669c1.395,2.783,14.989.967,27.871-3.713-1.913-10.163-4.145-20.321-5.493-30.484-13.757,9.412-22.872,33.207-22.378,34.2" transform="translate(31.61 38.556)" fill="#8ba72e"/>
          <path id="Trazado_880174" data-name="Trazado 880174" d="M69.83,148.411V49.087c0-20.084.405-30.932,2.012-31.333s0,21.693,0,31.333.71,99.324.71,99.324Z" transform="translate(21.504 18.762)" fill="#6b0000"/>
          <path id="Trazado_880175" data-name="Trazado 880175" d="M45.38,56.438c11.942,3.668,26.591,8.873,38.383,13.2q6.344,2.345,12.631,4.855a.426.426,0,0,1-.284.8q-6.462-2.012-12.874-4.17c-6.394-2.152-19.188-6.676-25.509-9.021Q51.383,59.755,45.1,57.24a.427.427,0,0,1,.284-.8" transform="translate(-4.919 59.64)"/>
          <path id="Trazado_880176" data-name="Trazado 880176" d="M118.9,43.7c-10.909,8.4-24.884,18.307-36.248,26.209q-6.131,4.24-12.364,8.34a.426.426,0,0,1-.494-.693q5.928-4.53,11.942-8.934c6-4.39,18.188-13.057,24.3-17.278Q112.173,47.1,118.407,43c.428-.292.932.372.494.7" transform="translate(21.291 45.384)"/>
          <path id="Trazado_880177" data-name="Trazado 880177" d="M37.9,103.245c.416,1.185.776,2.263,1.018,3.15,1.6,5.89,2.144,29.461,4.285,35.351s10.175,18.749,10.712,23.035-12.319,17.675-8.035,23.569,64.277,6.425,78.2,5.888c1.7-.064,3.392-.072,5.075-.047-15.84-39.788-53.868-67.723-91.26-90.945" transform="translate(-12.256 109.149)" fill="#cec26a"/>
          <path id="Trazado_880178" data-name="Trazado 880178" d="M62.263,83.972c1.779-2.678,6.34-2.512,7.554.6a.446.446,0,0,1-.664.531,5.6,5.6,0,0,0-3.045-1.267,8.041,8.041,0,0,0-3.318.8.447.447,0,0,1-.527-.671" transform="translate(13.414 86.786)"/>
          <path id="Trazado_880179" data-name="Trazado 880179" d="M65.944,79.372A1.587,1.587,0,0,1,69,78.695a.529.529,0,0,1-.531.667,3.426,3.426,0,0,0-1.763.4.527.527,0,0,1-.759-.387" transform="translate(17.383 82.152)"/>
          <path id="Trazado_880180" data-name="Trazado 880180" d="M80.53,87.236c1.01-3.695,5.939-7.21,9.356-4.135a6.368,6.368,0,0,1,1.866,3.372.429.429,0,0,1-.8.3c-2.691-5.135-6.972-2.989-9.665.846a.433.433,0,0,1-.761-.383" transform="translate(32.789 86.61)"/>
          <path id="Trazado_880181" data-name="Trazado 880181" d="M43.667,118.709c7.653,10.257,20.175,15.172,31.272,20.856,11.444,5.674,23.464,10.551,33.7,18.391.411.317-.07,1.016-.518.679-9.013-6.326-23.944-12.57-33.962-17.447-11.236-5.816-23.973-11.055-31.224-22.043a.427.427,0,0,1,.734-.436" transform="translate(-6.999 125.276)"/>
          <path id="Trazado_880182" data-name="Trazado 880182" d="M52.719,130.685a143.921,143.921,0,0,1,26.96,23.339c.346.376-.216.957-.6.6-8.858-7.91-17.764-15.635-26.869-23.259a.428.428,0,0,1,.51-.683" transform="translate(2.718 138.08)"/>
          <path id="Trazado_880183" data-name="Trazado 880183" d="M84.211,117.733c7.233-7.085,16.283-11.751,24.094-18.073a.428.428,0,0,1,.576.627c-7.021,7.326-16.093,12.059-24.115,18.091a.428.428,0,0,1-.555-.646" transform="translate(36.573 105.26)"/>
          <path id="Trazado_880184" data-name="Trazado 880184" d="M90.953,109.391a7.574,7.574,0,0,1,4.931-4.524.451.451,0,0,1,.541.337c-.3,1.15-1.621,1.823-2.31,2.683-.52.3-3.123,3.306-3.162,1.5" transform="translate(43.835 110.851)"/>
          <path id="Trazado_880185" data-name="Trazado 880185" d="M34.616,56.882C32.732,72,45.349,74.315,57.412,72.464a.427.427,0,0,1,.171.833c-8.149,2.292-20.586,2.111-23.7-7.556a17.5,17.5,0,0,1-.107-9,.427.427,0,0,1,.839.14" transform="translate(-17.178 59.644)"/>
          <path id="Trazado_880186" data-name="Trazado 880186" d="M72.626,53.052a148.57,148.57,0,0,0,13.6-27.992.427.427,0,0,1,.817.239A69.682,69.682,0,0,1,73.32,53.545a.428.428,0,0,1-.693-.494" transform="translate(24.389 26.198)"/>
          <path id="Trazado_880187" data-name="Trazado 880187" d="M86.548,56.3a127.794,127.794,0,0,0,27.174-10.389.427.427,0,0,1,.442.728,60.681,60.681,0,0,1-27.457,10.5.429.429,0,0,1-.158-.837" transform="translate(38.855 48.488)"/>
          <path id="Trazado_880188" data-name="Trazado 880188" d="M40.314,47.827a20.63,20.63,0,0,1,10.619.426A20.771,20.771,0,0,1,60.12,53.6a.963.963,0,0,1-1.027,1.557,128.243,128.243,0,0,0-18.76-5.468.965.965,0,0,1-.021-1.866" transform="translate(-10.451 50.021)" fill="#fff"/>
          <path id="Trazado_880189" data-name="Trazado 880189" d="M65.335,17.269c.913-6.163,9.206-8.387,13.9-5.306a.976.976,0,0,1-.385,1.812,32.531,32.531,0,0,0-6.61,1.014,13.344,13.344,0,0,0-5.271,3.349.987.987,0,0,1-1.638-.87" transform="translate(16.733 11.189)" fill="#fff"/>
          <path id="Trazado_880190" data-name="Trazado 880190" d="M95.129,35.522a10.509,10.509,0,0,1,7.27,1.73,10.853,10.853,0,0,1,4.579,5.886.992.992,0,0,1-1.529,1.068,90.8,90.8,0,0,0-10.64-6.846.993.993,0,0,1,.319-1.837" transform="translate(47.386 37.433)" fill="#fff"/>
        </g>
      </g>
      <g id="Grupo_1101898" data-name="Grupo 1101898" transform="translate(2830.229 -253.896)">
        <path id="Trazado_880142" data-name="Trazado 880142" d="M174.923,309.439h0A39.436,39.436,0,0,1,135.488,270V243.069a39.435,39.435,0,1,1,78.87,0V270a39.436,39.436,0,0,1-39.435,39.435" transform="translate(-12181.649 -12036.038)" fill="#fff"/>
        <path id="Trazado_880143" data-name="Trazado 880143" d="M187.854,219.137a98.366,98.366,0,0,1,11.94,2.05c4.316,1.209,7.366,2.363,7.575,2.93s-15.087,9.949-15.087,9.949Z" transform="translate(-12175.895 -12034.334)" fill="#ffc200"/>
        <path id="Trazado_880144" data-name="Trazado 880144" d="M159.555,276.65s-5.23,25.845-5.009,26.323,8.147,5.983,8.362,5.645-3.376-3.808-3.368-4.17,5.423,2.037,5.574,1.508-8.355-4.1-8.485-4.572,4.9-24.52,4.9-24.52Z" transform="translate(-12179.557 -12028.015)" fill="#ffc200"/>
        <path id="Trazado_880145" data-name="Trazado 880145" d="M171.935,277.436s-2.211,26.272-1.938,26.721,8.78,5.008,8.959,4.647-3.794-3.388-3.83-3.754,5.62,1.4,5.707.858-8.769-3.119-8.948-3.565,2.032-24.921,2.032-24.921Z" transform="translate(-12177.859 -12027.93)" fill="#ffc200"/>
        <path id="Trazado_880146" data-name="Trazado 880146" d="M113.509,233.609c5.981-4.786,10.765,8.549,12.171,8.161s-.871-6.89,6.275-7.468,7.572,32.433,10.443,31.113,34.472-16.06,34.77-18.749-4.341-19.823,1.01-26.313,25.983-5.834,26.552,6.214-14.465,14.991-13.867,16.976,15.617,19.451,8.753,30.674-25.341,15.715-41.936,8.151-22.069-9.8-25.059-9.865-28.555-2.891-28.673-9.172,18.6-.661,18.774-2.278-22.365-16.918-9.213-27.444" transform="translate(-12185.115 -12034.65)" fill="#cb5926"/>
        <path id="Trazado_880147" data-name="Trazado 880147" d="M113.509,233.609c5.981-4.786,10.765,8.549,12.171,8.161s-.871-6.89,6.275-7.468,7.572,32.433,10.443,31.113,34.472-16.06,34.77-18.749-4.341-19.823,1.01-26.313,25.983-5.834,26.552,6.214-14.465,14.991-13.867,16.976,15.617,19.451,8.753,30.674-25.341,15.715-41.936,8.151-22.069-9.8-25.059-9.865-28.555-2.891-28.673-9.172,18.6-.661,18.774-2.278-22.365-16.918-9.213-27.444" transform="translate(-12185.115 -12034.65)" fill="#fd6f2f"/>
        <path id="Trazado_880148" data-name="Trazado 880148" d="M140.052,261.934c-1.21.558-1.986-5-3.012-11.559q-5.742,9.172-11.753,18.169c2.451.309,4.31.465,4.989.478,2.989.06,8.46,2.305,25.059,9.866a40.992,40.992,0,0,0,16.908,3.713c-1.381-11.481-2.422-23.1-4.12-34.654C158.6,253.3,142.09,261,140.052,261.934" transform="translate(-12182.771 -12031.17)" fill="#cb5926"/>
        <path id="Trazado_880149" data-name="Trazado 880149" d="M183.123,222.452c.847-.267,2.693,3.568.947,3.738s-1.792-3.469-.947-3.738" transform="translate(-12176.475 -12033.973)"/>
        <path id="Trazado_880150" data-name="Trazado 880150" d="M160.673,264.023c-3.052.607-6.067-.568-9.062-.228a3.867,3.867,0,0,0-3.75,2.939c-.7,3.695,6.433,5.1,9.141,5.549,10.06,1.173,27.92-1.749,28.343-14.511-.063-2.775-.654-6.2-3.05-7.887a.255.255,0,0,1,.262-.438c3.766,2.693,4.294,8.859,2.743,12.916-4.231,9.832-18.938,12.088-28.447,10.942-3.394-.659-9.753-1.795-9.979-6.13a4.726,4.726,0,0,1,4.665-4.17c3.053-.262,6.059,1,9.032.517a.255.255,0,0,1,.1.5" transform="translate(-12180.398 -12031.009)"/>
        <path id="Trazado_880151" data-name="Trazado 880151" d="M181.33,247.553c3.164.3,3.255,4.629,1.113,6.242a.258.258,0,0,1-.364-.033.262.262,0,0,1-.023-.3c1.06-1.828,1.315-4.414-.862-5.417a.261.261,0,0,1,.136-.492" transform="translate(-12176.644 -12031.212)"/>
      </g>
      <path id="Trazado_880591" data-name="Trazado 880591" d="M252.233,267.939c6.467,4.268,12.767,2.445,19.046,2.134a267.029,267.029,0,0,1,27.329-.311c10.973.564,21.723.072,31.785-4.514,4.716-2.148,8.76-5.729,13.31-8.3a43.874,43.874,0,0,1,9.114-3.7,5.854,5.854,0,0,1,7.689,5.035c.919,11.494-1.128,22.258-8.89,31.285-5.259,6.127-12.391,9.107-19.864,11.53q-13.053,4.243-26,8.745a136.368,136.368,0,0,1-32.906,7.364c-5.548.492-11.017,1.859-16.565,2.43-7.038.723-14.127.651-20.949-1.483-6.908-2.163-13.686-4.738-20.536-7.089-2.626-.9-5.353-1.562-7.943-2.561-9.787-3.776-20.153-6.12-29.253-11.639-1.664-1.005-3.429-1.845-5.143-2.763-2.329-1.244-3.776.051-4.832,1.859-3.6,6.2-7.2,12.406-10.67,18.692-3.754,6.821-7.566,13.635-10.959,20.645a105,105,0,0,0-6.293,15.871c-1.36,4.608-1.526,9.548-2.546,14.279a13.959,13.959,0,0,1-2.626,5.143,4.523,4.523,0,0,1-6.807.644c-4.716-4.087-7.3-8.861-6.163-15.545,1.136-6.706,4.152-12.63,6.517-18.829a132.44,132.44,0,0,1,6.395-14.344c2.64-5.006,5.953-9.65,8.709-14.6q7.313-13.107,14.243-26.432c.875-1.671-2.669-4.8-2.705-5.078-.637-4.42-4.738-5.982-7.3-8.738-4.738-5.114-10.308-9.621-13.216-16.059a202.242,202.242,0,0,1-8.167-21.4c-5.751-17.874-7.422-36.457-8.948-55.041a57.948,57.948,0,0,1,2.438-23.307,47.906,47.906,0,0,1,6.409-12.167c4.3-6.091,9.114-11.827,13.816-17.621,5.454-6.742,13.064-5.686,17.7.919,4.912,6.98,7.067,14.771,7.74,23.292a111.859,111.859,0,0,1-1.483,29.224c-1.476,7.993-1.519,16.268-1.968,24.442-.3,5.476-.318,10.981-.217,16.478.072,4.188.6,8.348,3.045,11.986,2.358,3.523,4.376,3.5,6.315-.174,3.241-6.149,4.174-12.854,4.789-19.654.586-6.561,1.447-13.1,1.931-19.668.673-9.208,1.085-18.438,1.649-27.647.521-8.427.984-16.854,1.693-25.26.347-4.094,1.143-8.16,1.8-12.225,1.707-10.619,6.221-20.066,12.08-28.978,4.275-6.51,8.413-13.107,12.514-19.733,3.393-5.483,8.449-8.861,14.026-11.74,5.7-2.944,11.241-6.185,16.948-9.129,6.51-3.364,13.006-6.807,19.733-9.693,3.6-1.541,7.147-.029,10.033,2.6,3.993,3.624,2.937,7.487,1.1,12.42-2.474,6.669-5.447,13.151-7.877,19.835-1.6,4.391-2.684,8.977-3.87,13.512-1.28,4.933-2.626,9.867-3.566,14.872-1.924,10.257-6.134,19.538-11.125,28.609-4.76,8.644-9.274,17.447-11.892,27.054-1.519,5.57-3.255,11.1-4.492,16.724-.463,2.127.022,4.535.434,6.734.26,1.4,1.389,1.657,2.734.817a16.23,16.23,0,0,0,6.452-8.594c2.156-5.874,3.653-12.022,6.134-17.751,2.944-6.807,6.662-13.3,9.99-19.95,3.885-7.769,7.964-15.444,11.494-23.372,5.288-11.863,10.265-23.943,19.56-33.325a219.2,219.2,0,0,1,19.95-17.665c9.577-7.545,20.428-12.992,31.835-17.274,6.272-2.358,12.854-3.2,19.458-4.2,9.556-1.454,18.988-3.725,28.457-5.707,5.172-1.078,8.058.007,8.883,5.621a59.159,59.159,0,0,1-2.684,28.045c-2.105,6.156-5.461,11.921-8.659,17.643-7.566,13.52-15.075,27.09-23.169,40.306-6.561,10.72-13.3,21.462-21.166,31.213-5.671,7.038-13.274,12.536-20.109,18.612-4.463,3.957-9.165,7.639-13.614,11.6a22.946,22.946,0,0,1-10.481,5.1,24.83,24.83,0,0,0-14.872,9.838c-1.591,2.141-1.165,3.624,1.526,3.624a27.752,27.752,0,0,0,9.57-1.519,126.072,126.072,0,0,0,15.314-7.024c10.865-5.83,21.7-11.74,32.349-17.961a63.849,63.849,0,0,0,21.7-21.361c4.9-7.725,10.04-15.364,17.4-21.028a45.657,45.657,0,0,1,10.062-5.874c4.376-1.823,9.657,1.461,10.192,6.206a38.932,38.932,0,0,1-.26,9.259c-1.8,14.012-9.657,25.115-17.628,36.146a55.2,55.2,0,0,0-7.87,16.239c-4.109,13.266-10.771,24.768-22.764,32.5-6.691,4.311-13.194,8.991-20.225,12.666-9.49,4.962-19.8,7.718-30.446,9.252-12.2,1.751-24.63,1.751-36.6,5.085a21.386,21.386,0,0,0-4.326,1.295,13.2,13.2,0,0,0-2.749,2.6" transform="translate(-10498.349 -12169.977)" fill="#fd6f2f"/>
      <path id="Trazado_880604" data-name="Trazado 880604" d="M1220.006,642.993H916.242l293.417-78.618-4.4-16.429L911.836,626.564l263.07-151.883-8.5-14.73L903.333,611.834l214.8-214.794-12.023-12.026L891.313,599.808l151.88-263.068-14.73-8.5L876.583,591.305,955.2,297.894l-16.429-4.405L860.152,586.916V283.141H843.143V586.9L764.524,293.489,748.1,297.894l78.62,293.412L674.836,328.238l-14.73,8.5,151.88,263.068L597.194,385.015l-12.024,12.026,214.8,214.8L536.893,459.951l-8.5,14.73L791.46,626.564,498.044,547.946l-4.4,16.429,293.413,78.618H483.29V660H787.055L493.642,738.62l4.4,16.429,293.408-78.618L528.39,828.309l8.5,14.729L799.968,691.153l-214.8,214.8,12.024,12.024,214.8-214.8L660.106,966.254l14.73,8.5L826.716,711.69,748.1,1005.1l16.428,4.4L843.143,716.1v303.759h17.009V716.082l78.623,293.423,16.429-4.4L876.583,711.69l151.88,263.067,14.73-8.5L891.3,703.176l214.8,214.8,12.023-12.024-214.8-214.8L1166.4,843.038l8.5-14.729L911.844,676.431l293.409,78.618,4.4-16.429L916.242,660h303.765Z" transform="translate(-10441.456 -12992.857)" fill="#aed139" opacity="0.08"/>
    </g>
  </g>
</svg>
