<svg xmlns="http://www.w3.org/2000/svg" width="67.301" height="67.301" viewBox="0 0 67.301 67.301">
  <g id="img-13" transform="translate(2331.314 16085.39)">
    <g id="campo" transform="translate(-2331.314 -16085.39)">
      <path id="Trazado_884346" data-name="Trazado 884346" d="M67.3,156.073a.986.986,0,0,0-.5-.856A37.724,37.724,0,0,0,23.76,159.4q-2.368-.93-4.8-1.665a.986.986,0,0,0-.569,1.888,60.293,60.293,0,0,1,16.258,7.709H1.972V157.067A60.287,60.287,0,0,1,14.3,158.548a.986.986,0,0,0,.436-1.923A62.259,62.259,0,0,0,.986,155.087a.986.986,0,0,0-.986.986V196.9a.989.989,0,0,0,1,.986H66.3a.991.991,0,0,0,1-.986Zm-9.937,39.844-7.66-26.61h3.933l11.193,26.61Zm-18.189,0-.529-9.181a.986.986,0,1,0-1.969.113l.522,9.068H30.1l1.532-26.61h4.035l.763,13.252a.986.986,0,1,0,1.969-.113l-.756-13.139h4.024l4.6,26.61Zm-18.137,0,4.6-26.61h4.024l-1.532,26.61Zm-18.568,0,11.193-26.61H17.6l-7.66,26.61Zm-.5-26.61H5.489L1.972,176.1Zm5.738,0h3.814L1.972,192.016V180.382Zm57.619,22.709-9.552-22.709h3.814l5.738,11.075Zm-3.518-22.709h3.518V176.1Zm-36-9.055a35.755,35.755,0,0,1,39.516-3.6v10.685H38.06A62.08,62.08,0,0,0,25.813,160.252ZM11.989,195.917l7.66-26.61h3.985l-4.6,26.61Zm36.275,0-4.6-26.61h3.985l7.66,26.61Z" transform="translate(0 -130.588)" fill="#56681c"/>
      <path id="Trazado_884347" data-name="Trazado 884347" d="M103.327,51.664a5.069,5.069,0,1,0-5.069,5.069A5.075,5.075,0,0,0,103.327,51.664Zm-5.069,3.1a3.1,3.1,0,1,1,3.1-3.1A3.1,3.1,0,0,1,98.258,54.761Z" transform="translate(-80.94 -40.47)" fill="#56681c"/>
      <path id="Trazado_884348" data-name="Trazado 884348" d="M125.237,4.015a.986.986,0,0,0,.986-.986V.988a.986.986,0,0,0-1.972,0V3.029A.986.986,0,0,0,125.237,4.015Z" transform="translate(-107.919 -0.002)" fill="#56681c"/>
      <path id="Trazado_884349" data-name="Trazado 884349" d="M124.251,140.768v2.042a.986.986,0,1,0,1.972,0v-2.042a.986.986,0,0,0-1.972,0Z" transform="translate(-107.919 -121.408)" fill="#56681c"/>
      <path id="Trazado_884350" data-name="Trazado 884350" d="M86.575,13.652a.986.986,0,1,0,1.707-.986L87.262,10.9a.986.986,0,0,0-1.707.986Z" transform="translate(-74.194 -9.038)" fill="#56681c"/>
      <path id="Trazado_884351" data-name="Trazado 884351" d="M156.465,134.7a.986.986,0,1,0,1.707-.986l-1.021-1.768a.986.986,0,1,0-1.707.986Z" transform="translate(-134.897 -114.178)" fill="#56681c"/>
      <path id="Trazado_884352" data-name="Trazado 884352" d="M57.491,40.667l1.768,1.021a1,1,0,0,0,1.347-.361.986.986,0,0,0-.361-1.347L58.477,38.96a.986.986,0,1,0-.986,1.707Z" transform="translate(-49.506 -33.724)" fill="#56681c"/>
      <path id="Trazado_884353" data-name="Trazado 884353" d="M178.544,110.557l1.768,1.021a.986.986,0,1,0,.986-1.707l-1.768-1.021a.986.986,0,1,0-.986,1.707Z" transform="translate(-154.647 -94.427)" fill="#56681c"/>
      <path id="Trazado_884354" data-name="Trazado 884354" d="M47.581,79.629h2.042a.986.986,0,1,0,0-1.972H47.581a.986.986,0,1,0,0,1.972Z" transform="translate(-40.47 -67.45)" fill="#56681c"/>
      <path id="Trazado_884355" data-name="Trazado 884355" d="M186.375,78.643a.986.986,0,0,0,.986.986H189.4a.986.986,0,1,0,0-1.972h-2.042A.986.986,0,0,0,186.375,78.643Z" transform="translate(-161.877 -67.45)" fill="#56681c"/>
      <path id="Trazado_884356" data-name="Trazado 884356" d="M59.259,108.85l-1.768,1.021a.986.986,0,0,0-.361,1.347,1,1,0,0,0,1.347.361l1.768-1.021a.986.986,0,1,0-.986-1.707Z" transform="translate(-49.506 -94.427)" fill="#56681c"/>
      <path id="Trazado_884357" data-name="Trazado 884357" d="M178.183,41.327a1,1,0,0,0,1.347.361l1.768-1.021a.986.986,0,0,0-.986-1.707l-1.768,1.021A.986.986,0,0,0,178.183,41.327Z" transform="translate(-154.647 -33.724)" fill="#56681c"/>
      <path id="Trazado_884358" data-name="Trazado 884358" d="M85.915,135.065a1,1,0,0,0,1.347-.361l1.021-1.768a.986.986,0,1,0-1.707-.986l-1.021,1.768A.986.986,0,0,0,85.915,135.065Z" transform="translate(-74.194 -114.178)" fill="#56681c"/>
      <path id="Trazado_884359" data-name="Trazado 884359" d="M155.805,14.012a1,1,0,0,0,1.347-.361l1.021-1.768a.986.986,0,0,0-1.708-.986l-1.021,1.768A.986.986,0,0,0,155.805,14.012Z" transform="translate(-134.897 -9.037)" fill="#56681c"/>
      <path id="Trazado_884360" data-name="Trazado 884360" d="M315.6,29.1h5.339a.986.986,0,0,0,0-1.972H315.6a3.013,3.013,0,1,1,1.3-5.731.986.986,0,0,0,1.267-.373,4.014,4.014,0,0,1,7.359,1.289q.391.828,1.066.787a2.014,2.014,0,0,1,0,4.028h-1.361a.986.986,0,0,0,0,1.972H326.6a3.986,3.986,0,0,0,.667-7.915,6.006,6.006,0,0,0-5.666-4.054,5.942,5.942,0,0,0-4.629,2.189A4.986,4.986,0,1,0,315.6,29.1Z" transform="translate(-269.789 -14.878)" fill="#56681c"/>
    </g>
  </g>
</svg>
