<svg xmlns="http://www.w3.org/2000/svg" width="69.051" height="62.767" viewBox="0 0 69.051 62.767">
  <g id="img-11" transform="translate(2779.602 16080.807)">
    <g id="cavar" transform="translate(-2779.602 -16080.807)">
      <g id="Grupo_1102090" data-name="Grupo 1102090" transform="translate(0 0)">
        <path id="Trazado_884361" data-name="Trazado 884361" d="M369.651,391.778a1.012,1.012,0,1,0,0-2.023h-11.53a1.012,1.012,0,0,0,0,2.023Z" transform="translate(-308.948 -340.333)" fill="#56681c"/>
        <path id="Trazado_884362" data-name="Trazado 884362" d="M58.337,439.17a1.011,1.011,0,0,0,1.011,1.011h7.776a1.011,1.011,0,1,0,0-2.023H59.348A1.011,1.011,0,0,0,58.337,439.17Z" transform="translate(-50.469 -382.209)" fill="#56681c"/>
        <path id="Trazado_884363" data-name="Trazado 884363" d="M64.828,315.725a4.375,4.375,0,0,0-4.052-2.882c-1.6,0-1.825-.156-2.312-.5l-.077-.054c-2.858-2.009-5.112-2.641-8.178.069l-.13.116c-.322.289-.408.367-1.877.367a4.369,4.369,0,0,0-4,2.759,7.119,7.119,0,0,0-7.22,4.65c-.12.358-.857.655-1.637.97a6.866,6.866,0,0,0-4.253,3.5c-.71,1.633-2.573,2.621-4.984,2.642-2.81.026-5.36-1.263-6.212-3.131-.288-.633-.531-1.249-.766-1.845-.892-2.265-1.735-4.4-4.32-4.477H9.74a1.011,1.011,0,1,0,0,2.023h5.023c1.132.038,1.581.91,2.481,3.2.233.592.5,1.262.807,1.943,1.377,3.018,5.044,4.343,8.07,4.315,3.233-.029,5.783-1.471,6.821-3.858.611-1.4,1.9-1.926,3.155-2.431,1.172-.473,2.383-.961,2.8-2.206.2-.614,1.45-3.652,5.941-3.228a1.011,1.011,0,0,0,1.088-.812,2.385,2.385,0,0,1,2.276-1.986c1.951,0,2.468-.2,3.231-.887l.115-.1c2.009-1.775,3.07-1.762,5.678.071L57.3,314c.764.536,1.341.865,3.474.865a2.385,2.385,0,0,1,2.276,1.986,1.012,1.012,0,0,0,.949.816c1.467.063,3.027.954,3.027,2.482v7.171H37.662a1.011,1.011,0,1,0,0,2.023H67.028v3a.219.219,0,0,1-.219.213H2.239a.214.214,0,0,1-.216-.213V324.6h8.924a1.011,1.011,0,0,0,0-2.023H2.023V320.15a.219.219,0,0,1,.216-.216H5.068a1.011,1.011,0,1,0,0-2.023H2.239A2.241,2.241,0,0,0,0,320.15v12.19a2.24,2.24,0,0,0,2.239,2.236h64.57a2.242,2.242,0,0,0,2.242-2.236V320.15c0-2.5-2.061-4.058-4.223-4.425Z" transform="translate(0 -271.81)" fill="#56681c"/>
        <path id="Trazado_884364" data-name="Trazado 884364" d="M132.513,66.27a1.012,1.012,0,0,0,1.377.831l11.266-4.442a1.012,1.012,0,0,0-.742-1.882L134.47,64.7c.128-3.141,2.255-5.869,10.194-9.89l12.279-6.215a1.011,1.011,0,0,0,.474-1.3l-2.583-6.077a3.089,3.089,0,0,1,1.748-4l5.408-2.133a6.742,6.742,0,0,0,.31,1.017l.2.52a6.774,6.774,0,0,0,.469.949L159.5,38.94a2.492,2.492,0,0,0-1.4,3.227l2.833,7.145a4.53,4.53,0,0,1-.068,3.493,4.673,4.673,0,0,1-2.589,2.507l-9.6,3.783a1.012,1.012,0,1,0,.742,1.882l9.6-3.783a6.681,6.681,0,0,0,3.7-3.584,6.539,6.539,0,0,0,.093-5.043l-2.832-7.145a.466.466,0,0,1,.263-.6l4.106-1.617a6.724,6.724,0,0,0,4.364,1.609,6.572,6.572,0,0,0,1.9-.28l.01,0,.011,0q.037-.011.073-.025l10.339-4.054a4.074,4.074,0,0,0,2.3-5.291l-2.091-5.281a4.092,4.092,0,0,0-5.3-2.292L165.63,27.672c-.025.01-.049.02-.073.032l-.019.01,0,0a6.7,6.7,0,0,0-3.661,5.241l-6.031,2.378a5.112,5.112,0,0,0-2.967,6.408c-6.22-.481-8.2,2.292-9.679,4.362-.859,1.2-1.392,1.9-2.334,2.1a8.062,8.062,0,0,0-5.559,4.548,11.374,11.374,0,0,0-.868,6.762,8.564,8.564,0,0,0-1.921,6.751Zm44.182-40.8a2.066,2.066,0,0,1,2.676,1.155l2.091,5.281a2.051,2.051,0,0,1-1.157,2.663l-9.4,3.685-3.592-9.07Zm-11.179,4.666,3.426,8.651a4.621,4.621,0,0,1-4.556-2.907l-.2-.515a4.581,4.581,0,0,1,1.333-5.229ZM141.3,50.183c1.746-.384,2.66-1.664,3.544-2.9,1.473-2.063,3-4.195,8.923-3.412l1.422,3.345L143.751,53a38.685,38.685,0,0,0-7.459,4.649C136.257,54.326,137.923,50.931,141.3,50.183Z" transform="translate(-114.581 -23.299)" fill="#56681c"/>
      </g>
    </g>
  </g>
</svg>
