<svg xmlns="http://www.w3.org/2000/svg" width="76.292" height="66.299" viewBox="0 0 76.292 66.299">
  <g id="img-15" transform="translate(8346.573 -7900.85)">
    <g id="aguacates" transform="translate(-8346.573 7900.85)">
      <path id="Trazado_882546" data-name="Trazado 882546" d="M121.407,115.922c-13.45-.4-24.226-9.782-24.226-21.277a18.912,18.912,0,0,1,3.976-11.493l0-.007a29.7,29.7,0,0,0,5.98-14.6c.484-5.162,4.454-9.166,9.722-10.867a2.966,2.966,0,0,1,1.225-1.937,7.734,7.734,0,0,1,8.422,0,2.976,2.976,0,0,1,1.228,1.937c5.259,1.684,9.163,5.611,9.673,10.869a27.638,27.638,0,0,0,2.184,8.068,38.553,38.553,0,0,0,8.874-4.644,17.083,17.083,0,0,1,15.937-1.858,4.111,4.111,0,0,1,2.485-.633,6.845,6.845,0,0,1,4.017,1.642,5.09,5.09,0,0,1,1.937,3.4,2.781,2.781,0,0,1-.747,2.1,11.041,11.041,0,0,1-2.23,13.483,31.793,31.793,0,0,0-7.958,13.923,20.094,20.094,0,0,1-6.733,10.525c-9.239,7.83-23.9,8.282-33.769,1.355ZM117.619,60.07c-4.115,1.421-7.208,4.6-7.591,8.675a32.059,32.059,0,0,1-6.435,15.737,16.736,16.736,0,0,0-3.516,10.165c0,9.185,7.773,16.841,18.043,18.5-8.239-8.36-7.727-20.835,1.532-28.685a26.6,26.6,0,0,1,12.4-5.744l.009,0a41.6,41.6,0,0,0,4.845-1.178,30,30,0,0,1-2.384-8.783c-.4-4.156-3.435-7.278-7.544-8.687a5.486,5.486,0,0,1-.773.886,5.569,5.569,0,0,1-7.814,0,5.727,5.727,0,0,1-.773-.884Zm45.333,12.192a13.769,13.769,0,0,0-12.6,1.583,45.291,45.291,0,0,1-17.681,7.271A23.489,23.489,0,0,0,121.7,86.2c-8.674,7.349-8.674,19.286,0,26.635s22.752,7.352,31.426,0a17.727,17.727,0,0,0,5.946-9.291l0-.007a34.236,34.236,0,0,1,8.581-15,8.912,8.912,0,0,0,1.914-10.66,7.729,7.729,0,0,1-1.289.162,6.029,6.029,0,0,1-4.1-1.21,4.175,4.175,0,0,1-1.428-3.473,4.645,4.645,0,0,1,.191-1.087ZM122.3,56.955a4.2,4.2,0,0,0-2.03.459c-.284.16-.53.336-.53.579a2.145,2.145,0,0,0,.8,1.311,2.353,2.353,0,0,0,3.527,0,2.151,2.151,0,0,0,.8-1.311c0-.243-.249-.42-.53-.579a4.214,4.214,0,0,0-2.033-.459ZM168.86,72.863a3.909,3.909,0,0,0-1.819-.893,1.063,1.063,0,0,0-.86.093,2.025,2.025,0,0,0-.527,1.4,1.891,1.891,0,0,0,.582,1.62,2.809,2.809,0,0,0,1.911.493,3,3,0,0,0,1.657-.447c.2-.174.177-.447.11-.729a3.064,3.064,0,0,0-1.054-1.542Zm-58.7,11.328a1.591,1.591,0,0,1-1.964.5,1.14,1.14,0,0,1-.585-1.664q.682-1.071,1.28-2.18a1.562,1.562,0,0,1,1.917-.606,1.159,1.159,0,0,1,.715,1.627C111.1,82.652,110.642,83.428,110.158,84.191Zm3.145-6.146a1.519,1.519,0,0,1-1.833.773,1.194,1.194,0,0,1-.912-1.554,31.961,31.961,0,0,0,1.993-7.666,1.413,1.413,0,0,1,1.6-1.085,1.3,1.3,0,0,1,1.28,1.355A34.051,34.051,0,0,1,113.3,78.045Zm35.964,11.4c6.542,5.545,6.542,14.551,0,20.1a18.973,18.973,0,0,1-23.708,0c-6.542-5.545-6.542-14.551,0-20.1A18.973,18.973,0,0,1,149.268,89.442Zm-2.048,1.738a15.694,15.694,0,0,0-19.613,0,10.539,10.539,0,0,0,0,16.62,15.694,15.694,0,0,0,19.613,0,10.535,10.535,0,0,0,0-16.62Z" transform="translate(-97.181 -54.5)" fill="#2c5a79" fill-rule="evenodd"/>
    </g>
  </g>
</svg>
