<svg xmlns="http://www.w3.org/2000/svg" width="58.026" height="66.313" viewBox="0 0 58.026 66.313">
  <g id="img-12" transform="translate(2461.081 16080.807)">
    <g id="Fertilizer" transform="translate(-2461.081 -16080.807)">
      <g id="Outline" transform="translate(0)">
        <path id="Trazado_884365" data-name="Trazado 884365" d="M88.017,251.779c.291-1.35.957-5.617.957-16.383a80.926,80.926,0,0,0-1.27-10.528,1.036,1.036,0,0,0-2.045.334A80.949,80.949,0,0,1,86.9,235.4c0,12.944-.976,16.228-.983,16.25a1.036,1.036,0,0,0,.121.9l1.873,2.81a1.464,1.464,0,0,1-2.183.869,1.036,1.036,0,0,0-.689-.084c-.138.031-13.918,3.083-24.043,3.083s-23.9-3.053-24.043-3.084a1.035,1.035,0,0,0-.689.084,1.464,1.464,0,0,1-2.183-.869c3.819-6.186,1.011,2.29,1.011-19.963A80.848,80.848,0,0,1,36.339,225.2a1.036,1.036,0,1,0-2.045-.334,80.862,80.862,0,0,0-1.27,10.528c0,10.765.666,15.032.957,16.383l-1.819,2.729c-.436.654-.1,2.524,1.411,3.455a3.667,3.667,0,0,0,3.264.276c2.225.482,14.57,3.06,24.163,3.06s21.938-2.578,24.162-3.06a3.668,3.668,0,0,0,3.264-.276c1.507-.931,1.847-2.8,1.411-3.455Z" transform="translate(-31.985 -194.987)" fill="#56681c"/>
        <path id="Trazado_884366" data-name="Trazado 884366" d="M86.913,128H35.107a3.111,3.111,0,0,0-2.315,5.181,3.111,3.111,0,0,0,2.315,5.181H86.913a3.111,3.111,0,0,0,2.315-5.181A3.111,3.111,0,0,0,86.913,128Zm-35.228,6.217H86.913a1.036,1.036,0,0,1,0,2.072H35.107a1.036,1.036,0,1,1,0-2.072H43.4a1.036,1.036,0,1,0,0-2.072H35.107a1.036,1.036,0,1,1,0-2.072H86.913a1.036,1.036,0,0,1,0,2.072H51.685a1.036,1.036,0,1,0,0,2.072Z" transform="translate(-31.997 -111.422)" fill="#56681c"/>
        <path id="Trazado_884367" data-name="Trazado 884367" d="M194,289.577a1.036,1.036,0,0,0,0-2.072h-2.264a6.231,6.231,0,0,0-5.053-5.043v-2.481a5.569,5.569,0,0,0,4.5-.335c2.888-1.548,4.733-5.788,4.81-5.968a1.036,1.036,0,0,0-.766-1.428c-.192-.035-4.745-.844-7.632.7a5.39,5.39,0,0,0-1.927,1.72,5.39,5.39,0,0,0-1.927-1.72c-2.887-1.548-7.44-.739-7.632-.7a1.036,1.036,0,0,0-.766,1.428c.077.18,1.922,4.42,4.81,5.968a5.564,5.564,0,0,0,4.463.346v2.458A6.231,6.231,0,0,0,179.5,287.5h-2.072a1.036,1.036,0,0,0,0,2.072Zm-.557-15.452c-1.637,2.914-3.754,5.1-6.717,3.646-.005-.061-.011-.125-.019-.194C187.216,274.377,190.214,273.883,193.445,274.125Zm-8.843,3.646c-2.966,1.454-5.078-.729-6.717-3.646,3.232-.242,6.23.252,6.736,3.452C184.614,277.645,184.608,277.71,184.6,277.771Zm-2.986,9.734a4.147,4.147,0,0,1,8,0Z" transform="translate(-156.7 -236.779)" fill="#56681c"/>
        <path id="Trazado_884368" data-name="Trazado 884368" d="M135.313,259.975a13.988,13.988,0,1,0,0-27.975h-9.325a13.988,13.988,0,0,0,0,27.975Zm-21.241-13.988a11.928,11.928,0,0,1,11.915-11.915h9.325a11.915,11.915,0,1,1,0,23.831h-9.325A11.928,11.928,0,0,1,114.072,245.988Z" transform="translate(-101.637 -201.952)" fill="#56681c"/>
        <path id="Trazado_884369" data-name="Trazado 884369" d="M109.647,14.172c7.2-7.8,13.38-12.1,17.39-12.1s10.186,4.3,17.39,12.1a1.036,1.036,0,1,0,1.523-1.406C140.573,6.942,132.927,0,127.038,0S113.5,6.942,108.125,12.767a1.036,1.036,0,1,0,1.523,1.406Z" transform="translate(-98.024)" fill="#56681c"/>
        <ellipse id="Elipse_11676" data-name="Elipse 11676" cx="1.036" cy="1.036" rx="1.036" ry="1.036" transform="translate(14.508 20.722)" fill="#56681c"/>
        <ellipse id="Elipse_11677" data-name="Elipse 11677" cx="1.036" cy="1.036" rx="1.036" ry="1.036" transform="translate(22.797 8.289)" fill="#56681c"/>
        <ellipse id="Elipse_11678" data-name="Elipse 11678" cx="1.036" cy="1.036" rx="1.036" ry="1.036" transform="translate(25.905 4.144)" fill="#56681c"/>
        <ellipse id="Elipse_11679" data-name="Elipse 11679" cx="1.036" cy="1.036" rx="1.036" ry="1.036" transform="translate(27.977 7.253)" fill="#56681c"/>
        <ellipse id="Elipse_11680" data-name="Elipse 11680" cx="1.036" cy="1.036" rx="1.036" ry="1.036" transform="translate(31.086 5.181)" fill="#56681c"/>
        <ellipse id="Elipse_11681" data-name="Elipse 11681" cx="1.036" cy="1.036" rx="1.036" ry="1.036" transform="translate(33.158 9.325)" fill="#56681c"/>
        <ellipse id="Elipse_11682" data-name="Elipse 11682" cx="1.036" cy="1.036" rx="1.036" ry="1.036" transform="translate(37.302 12.433)" fill="#56681c"/>
        <ellipse id="Elipse_11683" data-name="Elipse 11683" cx="1.036" cy="1.036" rx="1.036" ry="1.036" transform="translate(30.05 12.433)" fill="#56681c"/>
        <ellipse id="Elipse_11684" data-name="Elipse 11684" cx="1.036" cy="1.036" rx="1.036" ry="1.036" transform="translate(24.869 12.433)" fill="#56681c"/>
        <ellipse id="Elipse_11685" data-name="Elipse 11685" cx="1.036" cy="1.036" rx="1.036" ry="1.036" transform="translate(18.652 12.433)" fill="#56681c"/>
      </g>
    </g>
  </g>
</svg>
