<svg id="img-15" xmlns="http://www.w3.org/2000/svg" xmlns:xlink="http://www.w3.org/1999/xlink" width="125.757" height="129.837" viewBox="0 0 125.757 129.837">
  <defs>
    <clipPath id="clip-path">
      <rect id="Rectángulo_402767" data-name="Rectángulo 402767" width="125.757" height="129.837" fill="none"/>
    </clipPath>
  </defs>
  <g id="Grupo_1102059" data-name="Grupo 1102059" transform="translate(0 0)" clip-path="url(#clip-path)">
    <path id="Trazado_884246" data-name="Trazado 884246" d="M22.948,17.61H6.153l5.631,22.71a4.4,4.4,0,0,0,4.273,3.341H29.842a4.4,4.4,0,0,0,4.271-3.341l5.631-22.71Z" transform="translate(8.152 23.333)" fill="#5f625e"/>
    <path id="Trazado_884247" data-name="Trazado 884247" d="M46.465,9.09h-32.3S1.744,30.728,6.05,30.728H38.316a4.25,4.25,0,0,0,4.208-3.657Z" transform="translate(6.814 12.044)" fill="#d2d3d4"/>
    <path id="Trazado_884248" data-name="Trazado 884248" d="M38.2,10.757H14.729L7.454,24.928a1.212,1.212,0,0,0,1.076,1.765H34.384a1.214,1.214,0,0,0,1.193-1Z" transform="translate(9.697 14.253)" fill="#664a3b"/>
    <path id="Trazado_884249" data-name="Trazado 884249" d="M37.658,17.61h-16.8l5.631,22.71a4.4,4.4,0,0,0,4.273,3.341H44.552a4.4,4.4,0,0,0,4.271-3.341l5.631-22.71Z" transform="translate(27.643 23.333)" fill="#5f625e"/>
    <path id="Trazado_884250" data-name="Trazado 884250" d="M56.542,9.09H24.534l-3.9,19.323c-.253,1.2,1.216,2.316,2.5,2.316h30.98a2.374,2.374,0,0,0,2.43-2.311Z" transform="translate(27.296 12.044)" fill="#d2d3d4"/>
    <path id="Trazado_884251" data-name="Trazado 884251" d="M52.133,10.757H27.4L22.029,25.2a1.125,1.125,0,0,0,1.1,1.488H50.959a1.148,1.148,0,0,0,1.174-1.116Z" transform="translate(29.097 14.253)" fill="#664a3b"/>
    <rect id="Rectángulo_402758" data-name="Rectángulo 402758" width="5.059" height="19.523" transform="translate(28.678 16.263)" fill="#87be00"/>
    <path id="Trazado_884252" data-name="Trazado 884252" d="M7.9,10.06c1.025,3.1,4.259,4.885,7.365,5.891a32.491,32.491,0,0,0,7.807,1.509A18,18,0,0,0,10.563,0C8.705,3.067,6.776,6.654,7.9,10.06" transform="translate(10.025 0)" fill="#87be00"/>
    <path id="Trazado_884253" data-name="Trazado 884253" d="M10.2,2.594a53.791,53.791,0,0,0,9.93,10.379,4.112,4.112,0,0,1-3.876-.325,9.177,9.177,0,0,1-2.788-2.906A24.737,24.737,0,0,1,10.2,2.594" transform="translate(13.513 3.437)" fill="#add250"/>
    <path id="Trazado_884254" data-name="Trazado 884254" d="M27.7,10.524c-1.023,3.1-4.257,4.885-7.365,5.891a32.6,32.6,0,0,1-7.807,1.509A18,18,0,0,1,25.035.464c1.858,3.067,3.79,6.654,2.664,10.06" transform="translate(16.58 0.615)" fill="#87be00"/>
    <path id="Trazado_884255" data-name="Trazado 884255" d="M22.8,2.594a53.791,53.791,0,0,1-9.93,10.379,4.112,4.112,0,0,0,3.876-.325,9.177,9.177,0,0,0,2.788-2.906A24.737,24.737,0,0,0,22.8,2.594" transform="translate(17.051 3.437)" fill="#add250"/>
    <rect id="Rectángulo_402759" data-name="Rectángulo 402759" width="5.061" height="19.523" transform="translate(64.58 16.263)" fill="#87be00"/>
    <path id="Trazado_884256" data-name="Trazado 884256" d="M23.342,10.06c1.023,3.1,4.257,4.885,7.363,5.891a32.532,32.532,0,0,0,7.81,1.509A18,18,0,0,0,26.007,0c-1.86,3.067-3.79,6.654-2.664,10.06" transform="translate(30.485 0)" fill="#87be00"/>
    <path id="Trazado_884257" data-name="Trazado 884257" d="M25.642,2.594A53.779,53.779,0,0,0,35.57,12.973a4.1,4.1,0,0,1-3.871-.325,9.184,9.184,0,0,1-2.79-2.906,24.614,24.614,0,0,1-3.267-7.147" transform="translate(33.975 3.437)" fill="#add250"/>
    <path id="Trazado_884258" data-name="Trazado 884258" d="M43.142,10.524c-1.025,3.1-4.259,4.885-7.365,5.891a32.627,32.627,0,0,1-7.807,1.509A18,18,0,0,1,40.473.464c1.862,3.067,3.792,6.654,2.669,10.06" transform="translate(37.041 0.615)" fill="#87be00"/>
    <path id="Trazado_884259" data-name="Trazado 884259" d="M38.242,2.594a53.722,53.722,0,0,1-9.93,10.379,4.112,4.112,0,0,0,3.876-.325,9.177,9.177,0,0,0,2.788-2.906,24.614,24.614,0,0,0,3.267-7.147" transform="translate(37.512 3.437)" fill="#add250"/>
    <path id="Trazado_884260" data-name="Trazado 884260" d="M53.6,17.61H70.4L64.768,40.32a4.4,4.4,0,0,1-4.273,3.341H46.71a4.4,4.4,0,0,1-4.271-3.341L36.808,17.61Z" transform="translate(48.769 23.333)" fill="#5f625e"/>
    <path id="Trazado_884261" data-name="Trazado 884261" d="M36.06,9.09H68.068l3.9,19.323c.253,1.2-1.216,2.316-2.5,2.316H38.49a2.374,2.374,0,0,1-2.43-2.311Z" transform="translate(47.778 12.044)" fill="#d2d3d4"/>
    <path id="Trazado_884262" data-name="Trazado 884262" d="M37.181,10.757H61.916L67.282,25.2a1.125,1.125,0,0,1-1.1,1.488H38.353a1.146,1.146,0,0,1-1.172-1.116Z" transform="translate(49.263 14.253)" fill="#664a3b"/>
    <rect id="Rectángulo_402760" data-name="Rectángulo 402760" width="5.059" height="19.523" transform="translate(98.032 16.263)" fill="#87be00"/>
    <path id="Trazado_884263" data-name="Trazado 884263" d="M57.62,10.06c-1.023,3.1-4.257,4.885-7.363,5.891a32.535,32.535,0,0,1-7.807,1.509A18,18,0,0,1,54.955,0c1.86,3.067,3.79,6.654,2.664,10.06" transform="translate(56.227 0)" fill="#87be00"/>
    <path id="Trazado_884264" data-name="Trazado 884264" d="M52.134,2.594a53.779,53.779,0,0,1-9.928,10.379,4.112,4.112,0,0,0,3.876-.325,9.145,9.145,0,0,0,2.785-2.906,24.614,24.614,0,0,0,3.267-7.147" transform="translate(55.921 3.437)" fill="#add250"/>
    <path id="Trazado_884265" data-name="Trazado 884265" d="M37.821,10.524c1.025,3.1,4.259,4.885,7.365,5.891a32.626,32.626,0,0,0,7.807,1.509A18,18,0,0,0,40.487.464c-1.86,3.067-3.79,6.654-2.667,10.06" transform="translate(49.67 0.615)" fill="#87be00"/>
    <path id="Trazado_884266" data-name="Trazado 884266" d="M39.536,2.594a53.664,53.664,0,0,0,9.932,10.379,4.116,4.116,0,0,1-3.878-.325A9.177,9.177,0,0,1,42.8,9.741a24.614,24.614,0,0,1-3.267-7.147" transform="translate(52.384 3.437)" fill="#add250"/>
    <path id="Trazado_884267" data-name="Trazado 884267" d="M21.532,29.84H2.923L9.163,55A4.874,4.874,0,0,0,13.9,58.709h15.27A4.876,4.876,0,0,0,33.9,55l6.24-25.163Z" transform="translate(3.873 39.537)" fill="#5f625e"/>
    <path id="Trazado_884268" data-name="Trazado 884268" d="M47.589,20.4H11.8S-1.963,44.373,2.808,44.373H38.559a4.71,4.71,0,0,0,4.664-4.05Z" transform="translate(2.389 27.03)" fill="#d2d3d4"/>
    <path id="Trazado_884269" data-name="Trazado 884269" d="M38.431,22.247h-26l-8.063,15.7A1.341,1.341,0,0,0,5.556,39.9H34.2a1.342,1.342,0,0,0,1.321-1.109Z" transform="translate(5.583 29.477)" fill="#664a3b"/>
    <path id="Trazado_884270" data-name="Trazado 884270" d="M37.831,29.84H19.222L25.462,55A4.876,4.876,0,0,0,30.2,58.709h15.27A4.872,4.872,0,0,0,50.2,55L56.44,29.84Z" transform="translate(25.468 39.537)" fill="#5f625e"/>
    <path id="Trazado_884271" data-name="Trazado 884271" d="M58.755,20.4H23.29L18.963,41.808c-.279,1.328,1.348,2.564,2.771,2.564H56.062a2.629,2.629,0,0,0,2.692-2.56Z" transform="translate(25.083 27.03)" fill="#d2d3d4"/>
    <path id="Trazado_884272" data-name="Trazado 884272" d="M53.867,22.247H26.46L20.513,38.254A1.245,1.245,0,0,0,21.738,39.9H52.57a1.268,1.268,0,0,0,1.3-1.235Z" transform="translate(27.079 29.477)" fill="#664a3b"/>
    <rect id="Rectángulo_402761" data-name="Rectángulo 402761" width="5.603" height="21.634" transform="translate(22.722 42.028)" fill="#87be00"/>
    <path id="Trazado_884273" data-name="Trazado 884273" d="M4.858,21.474C5.993,24.908,9.573,26.886,13.016,28a36.12,36.12,0,0,0,8.651,1.669A19.936,19.936,0,0,0,7.811,10.328c-2.062,3.4-4.2,7.372-2.953,11.146" transform="translate(5.946 13.685)" fill="#87be00"/>
    <path id="Trazado_884274" data-name="Trazado 884274" d="M7.405,13.2a59.429,59.429,0,0,0,11,11.5,4.57,4.57,0,0,1-4.3-.358,10.162,10.162,0,0,1-3.085-3.22A27.362,27.362,0,0,1,7.405,13.2" transform="translate(9.811 17.491)" fill="#add250"/>
    <path id="Trazado_884275" data-name="Trazado 884275" d="M26.8,21.988c-1.135,3.439-4.717,5.413-8.161,6.531a36.094,36.094,0,0,1-8.651,1.667A19.941,19.941,0,0,1,23.841,10.842c2.062,3.4,4.2,7.372,2.955,11.146" transform="translate(13.21 14.366)" fill="#87be00"/>
    <path id="Trazado_884276" data-name="Trazado 884276" d="M21.368,13.2a59.429,59.429,0,0,1-11,11.5,4.57,4.57,0,0,0,4.3-.358,10.137,10.137,0,0,0,3.085-3.22A27.362,27.362,0,0,0,21.368,13.2" transform="translate(13.732 17.491)" fill="#add250"/>
    <rect id="Rectángulo_402762" data-name="Rectángulo 402762" width="5.605" height="21.634" transform="translate(62.502 42.028)" fill="#87be00"/>
    <path id="Trazado_884277" data-name="Trazado 884277" d="M21.969,21.474C23.1,24.908,26.686,26.886,30.129,28a36.1,36.1,0,0,0,8.651,1.669A19.941,19.941,0,0,0,24.921,10.328c-2.06,3.4-4.2,7.372-2.953,11.146" transform="translate(28.618 13.685)" fill="#87be00"/>
    <path id="Trazado_884278" data-name="Trazado 884278" d="M24.517,13.2a59.429,59.429,0,0,0,11,11.5,4.569,4.569,0,0,1-4.3-.358,10.137,10.137,0,0,1-3.085-3.22A27.362,27.362,0,0,1,24.517,13.2" transform="translate(32.484 17.491)" fill="#add250"/>
    <path id="Trazado_884279" data-name="Trazado 884279" d="M43.907,21.988c-1.137,3.439-4.717,5.413-8.163,6.531A36.054,36.054,0,0,1,27.1,30.186,19.938,19.938,0,0,1,40.952,10.842c2.062,3.4,4.2,7.372,2.955,11.146" transform="translate(35.881 14.366)" fill="#87be00"/>
    <path id="Trazado_884280" data-name="Trazado 884280" d="M38.479,13.2a59.429,59.429,0,0,1-11,11.5,4.57,4.57,0,0,0,4.3-.358,10.162,10.162,0,0,0,3.085-3.22A27.362,27.362,0,0,0,38.479,13.2" transform="translate(36.403 17.491)" fill="#add250"/>
    <path id="Trazado_884281" data-name="Trazado 884281" d="M55.5,29.84H74.107L67.867,55a4.876,4.876,0,0,1-4.734,3.706H47.863A4.872,4.872,0,0,1,43.129,55L36.889,29.84Z" transform="translate(48.876 39.537)" fill="#5f625e"/>
    <path id="Trazado_884282" data-name="Trazado 884282" d="M36.06,20.4H71.525l4.327,21.408c.279,1.328-1.348,2.564-2.771,2.564H38.752a2.628,2.628,0,0,1-2.692-2.56Z" transform="translate(47.778 27.03)" fill="#d2d3d4"/>
    <path id="Trazado_884283" data-name="Trazado 884283" d="M37.3,22.247H64.71l5.947,16.007A1.245,1.245,0,0,1,69.432,39.9H38.6a1.268,1.268,0,0,1-1.3-1.235Z" transform="translate(49.425 29.477)" fill="#664a3b"/>
    <rect id="Rectángulo_402763" data-name="Rectángulo 402763" width="5.605" height="21.634" transform="translate(99.566 42.028)" fill="#87be00"/>
    <path id="Trazado_884284" data-name="Trazado 884284" d="M59.949,21.474c-1.135,3.434-4.717,5.413-8.161,6.528a36.1,36.1,0,0,1-8.649,1.669A19.937,19.937,0,0,1,56.994,10.328c2.062,3.4,4.2,7.372,2.955,11.146" transform="translate(57.139 13.685)" fill="#87be00"/>
    <path id="Trazado_884285" data-name="Trazado 884285" d="M53.872,13.2a59.486,59.486,0,0,1-11,11.5,4.566,4.566,0,0,0,4.294-.358,10.137,10.137,0,0,0,3.085-3.22A27.362,27.362,0,0,0,53.872,13.2" transform="translate(56.801 17.491)" fill="#add250"/>
    <path id="Trazado_884286" data-name="Trazado 884286" d="M38.012,21.988c1.137,3.439,4.717,5.413,8.161,6.531a36.094,36.094,0,0,0,8.651,1.667A19.938,19.938,0,0,0,40.964,10.842c-2.06,3.4-4.2,7.372-2.953,11.146" transform="translate(49.874 14.366)" fill="#87be00"/>
    <path id="Trazado_884287" data-name="Trazado 884287" d="M39.911,13.2a59.429,59.429,0,0,0,11,11.5,4.571,4.571,0,0,1-4.3-.358,10.162,10.162,0,0,1-3.085-3.22A27.362,27.362,0,0,1,39.911,13.2" transform="translate(52.88 17.491)" fill="#add250"/>
    <path id="Trazado_884288" data-name="Trazado 884288" d="M20.767,42.775H1.179L7.747,69.263a5.131,5.131,0,0,0,4.982,3.9H28.8a5.136,5.136,0,0,0,4.985-3.9l6.566-26.488Z" transform="translate(1.562 56.676)" fill="#5f625e"/>
    <path id="Trazado_884289" data-name="Trazado 884289" d="M48.194,32.838H10.526S-3.966,58.073,1.058,58.073H38.69A4.954,4.954,0,0,0,43.6,53.809Z" transform="translate(0 43.509)" fill="#d2d3d4"/>
    <path id="Trazado_884290" data-name="Trazado 884290" d="M38.555,34.782H11.184L2.7,51.308a1.412,1.412,0,0,0,1.255,2.058H34.105A1.412,1.412,0,0,0,35.5,52.2Z" transform="translate(3.361 46.085)" fill="#664a3b"/>
    <path id="Trazado_884291" data-name="Trazado 884291" d="M37.924,42.775H18.336L24.9,69.263a5.136,5.136,0,0,0,4.985,3.9H45.961a5.134,5.134,0,0,0,4.985-3.9l6.566-26.488Z" transform="translate(24.294 56.676)" fill="#5f625e"/>
    <path id="Trazado_884292" data-name="Trazado 884292" d="M59.951,32.838H22.619L18.062,55.371c-.293,1.4,1.423,2.7,2.92,2.7H57.116a2.768,2.768,0,0,0,2.834-2.7Z" transform="translate(23.887 43.509)" fill="#d2d3d4"/>
    <path id="Trazado_884293" data-name="Trazado 884293" d="M54.8,34.782H25.957L19.693,51.631a1.314,1.314,0,0,0,1.29,1.734H53.44a1.335,1.335,0,0,0,1.365-1.3Z" transform="translate(25.99 46.085)" fill="#664a3b"/>
    <rect id="Rectángulo_402764" data-name="Rectángulo 402764" width="5.901" height="22.771" transform="translate(19.504 70.665)" fill="#87be00"/>
    <path id="Trazado_884294" data-name="Trazado 884294" d="M3.215,33.968c1.2,3.618,4.966,5.7,8.588,6.873A38,38,0,0,0,20.91,42.6,20.986,20.986,0,0,0,6.323,22.236C4.154,25.812,1.9,30,3.215,33.968" transform="translate(3.744 29.462)" fill="#87be00"/>
    <path id="Trazado_884295" data-name="Trazado 884295" d="M5.9,25.261A62.747,62.747,0,0,0,17.48,37.367a4.807,4.807,0,0,1-4.522-.379,10.734,10.734,0,0,1-3.25-3.39A28.884,28.884,0,0,1,5.9,25.261" transform="translate(7.813 33.47)" fill="#add250"/>
    <path id="Trazado_884296" data-name="Trazado 884296" d="M26.309,34.509c-1.2,3.618-4.966,5.7-8.588,6.873a37.908,37.908,0,0,1-9.109,1.758A20.991,20.991,0,0,1,23.2,22.777c2.172,3.576,4.422,7.761,3.111,11.732" transform="translate(11.39 30.179)" fill="#87be00"/>
    <path id="Trazado_884297" data-name="Trazado 884297" d="M20.594,25.261A62.747,62.747,0,0,1,9.011,37.367a4.807,4.807,0,0,0,4.522-.379,10.734,10.734,0,0,0,3.25-3.39,28.823,28.823,0,0,0,3.811-8.337" transform="translate(11.939 33.47)" fill="#add250"/>
    <rect id="Rectángulo_402765" data-name="Rectángulo 402765" width="5.901" height="22.771" transform="translate(61.379 70.665)" fill="#87be00"/>
    <path id="Trazado_884298" data-name="Trazado 884298" d="M21.227,33.968c1.2,3.618,4.966,5.7,8.588,6.873A38,38,0,0,0,38.922,42.6,20.986,20.986,0,0,0,24.335,22.236c-2.169,3.576-4.42,7.761-3.108,11.732" transform="translate(27.609 29.462)" fill="#87be00"/>
    <path id="Trazado_884299" data-name="Trazado 884299" d="M23.909,25.261A62.746,62.746,0,0,0,35.492,37.367a4.807,4.807,0,0,1-4.522-.379,10.734,10.734,0,0,1-3.25-3.39,28.823,28.823,0,0,1-3.811-8.337" transform="translate(31.678 33.47)" fill="#add250"/>
    <path id="Trazado_884300" data-name="Trazado 884300" d="M44.321,34.509c-1.2,3.618-4.968,5.7-8.593,6.873a37.849,37.849,0,0,1-9.1,1.758A20.988,20.988,0,0,1,41.21,22.777c2.169,3.576,4.422,7.761,3.111,11.732" transform="translate(35.255 30.179)" fill="#87be00"/>
    <path id="Trazado_884301" data-name="Trazado 884301" d="M38.606,25.261A62.747,62.747,0,0,1,27.023,37.367a4.812,4.812,0,0,0,4.524-.379A10.727,10.727,0,0,0,34.8,33.6a28.884,28.884,0,0,0,3.811-8.337" transform="translate(35.804 33.47)" fill="#add250"/>
    <path id="Trazado_884302" data-name="Trazado 884302" d="M56.522,42.775H76.11L69.544,69.263a5.136,5.136,0,0,1-4.985,3.9H48.485a5.132,5.132,0,0,1-4.985-3.9L36.932,42.775Z" transform="translate(48.933 56.676)" fill="#5f625e"/>
    <path id="Trazado_884303" data-name="Trazado 884303" d="M36.06,32.838H73.392l4.557,22.533c.291,1.4-1.423,2.7-2.92,2.7H38.894a2.768,2.768,0,0,1-2.834-2.7Z" transform="translate(47.778 43.509)" fill="#d2d3d4"/>
    <path id="Trazado_884304" data-name="Trazado 884304" d="M37.368,34.782H66.216l6.261,16.849a1.312,1.312,0,0,1-1.288,1.734H38.733a1.335,1.335,0,0,1-1.365-1.3Z" transform="translate(49.511 46.085)" fill="#664a3b"/>
    <rect id="Rectángulo_402766" data-name="Rectángulo 402766" width="5.901" height="22.771" transform="translate(100.394 70.665)" fill="#87be00"/>
    <path id="Trazado_884305" data-name="Trazado 884305" d="M61.207,33.968c-1.2,3.618-4.966,5.7-8.588,6.873A38,38,0,0,1,43.512,42.6,20.986,20.986,0,0,1,58.1,22.236c2.169,3.576,4.42,7.761,3.108,11.732" transform="translate(57.631 29.462)" fill="#87be00"/>
    <path id="Trazado_884306" data-name="Trazado 884306" d="M54.811,25.261A62.747,62.747,0,0,1,43.228,37.367a4.807,4.807,0,0,0,4.522-.379A10.734,10.734,0,0,0,51,33.6a28.884,28.884,0,0,0,3.811-8.337" transform="translate(57.275 33.47)" fill="#add250"/>
    <path id="Trazado_884307" data-name="Trazado 884307" d="M38.115,34.509c1.2,3.618,4.966,5.7,8.588,6.873a37.908,37.908,0,0,0,9.109,1.758A20.994,20.994,0,0,0,41.226,22.777c-2.172,3.576-4.424,7.761-3.111,11.732" transform="translate(49.985 30.179)" fill="#87be00"/>
    <path id="Trazado_884308" data-name="Trazado 884308" d="M40.114,25.261A62.677,62.677,0,0,0,51.7,37.367a4.807,4.807,0,0,1-4.522-.379,10.734,10.734,0,0,1-3.25-3.39,28.885,28.885,0,0,1-3.811-8.337" transform="translate(53.149 33.47)" fill="#add250"/>
  </g>
</svg>
