<svg xmlns="http://www.w3.org/2000/svg" width="118.333" height="118.336" viewBox="0 0 118.333 118.336">
  <g id="img-1" transform="translate(3626.5 17391.668)">
    <g id="regando-plantas" transform="translate(-3626.503 -17391.668)">
      <g id="Grupo_1102065" data-name="Grupo 1102065" transform="translate(59.736 36.796)">
        <path id="Trazado_884315" data-name="Trazado 884315" d="M260.87,167.493l16.306,1.258,1.238-5.47-4-4.075H260.87l-2.418,4.075Z" transform="translate(-258.452 -159.205)" fill="#f9f6f6" fill-rule="evenodd"/>
      </g>
      <g id="Grupo_1102066" data-name="Grupo 1102066" transform="translate(52.759 34.064)">
        <path id="Trazado_884316" data-name="Trazado 884316" d="M228.263,158.974a2.277,2.277,0,0,0,3.289,1.959l6.106-2.529v-8.288l-6.106-2.529a2.285,2.285,0,0,0-3.289,1.965Z" transform="translate(-228.263 -147.384)" fill="#9dc6fb" fill-rule="evenodd"/>
      </g>
      <g id="Grupo_1102067" data-name="Grupo 1102067" transform="translate(52.759 41.33)">
        <path id="Trazado_884317" data-name="Trazado 884317" d="M231.552,181.35a2.282,2.282,0,0,1-3.289-1.959v3.754a2.277,2.277,0,0,0,3.289,1.959l6.106-2.529v-3.754l-1.218.5Z" transform="translate(-228.263 -178.821)" fill="#80b4fb" fill-rule="evenodd"/>
      </g>
      <g id="Grupo_1102068" data-name="Grupo 1102068" transform="translate(62.154 36.796)">
        <path id="Trazado_884318" data-name="Trazado 884318" d="M278.451,164.459l-9.539-.721v3.754l16.307,1.258L282.46,159.2h-3.394l.629,2.313C280.292,163.706,280.809,164.636,278.451,164.459Z" transform="translate(-268.912 -159.205)" fill="#dddaec" fill-rule="evenodd"/>
      </g>
      <g id="Grupo_1102069" data-name="Grupo 1102069" transform="translate(74.294 18.628)">
        <path id="Trazado_884319" data-name="Trazado 884319" d="M327.019,113.192c.57,1.972,3.112,2.647,4.959,1.769l27.11-12.88c1.848-.878,2.929-3.276,1.762-4.96l-6.263-9.054L349.418,80.6l-16.058,5.536-11.924,7.757,1.408,4.874,2.758,9.546Z" transform="translate(-321.437 -80.598)" fill="#9dc6fb" fill-rule="evenodd"/>
      </g>
      <g id="Grupo_1102070" data-name="Grupo 1102070" transform="translate(72.817 12.827)">
        <path id="Trazado_884320" data-name="Trazado 884320" d="M316.525,74.592,329.7,68.335,344.506,61.3l-2.561-3.7c-1.166-1.684-3.112-2.647-4.966-1.769l-10.993,5.222L317.036,65.3c-1.848.878-2.332,2.994-1.762,4.96Z" transform="translate(-315.048 -55.497)" fill="#f9f6f6" fill-rule="evenodd"/>
      </g>
      <g id="Grupo_1102071" data-name="Grupo 1102071" transform="translate(88.897 12.826)">
        <path id="Trazado_884321" data-name="Trazado 884321" d="M390.471,55.827l-5.85,2.784c1.848-.885,3.793.079,4.959,1.762l2.136,3.092.426.616L398,61.3l-2.562-3.7c-1.166-1.684-3.112-2.647-4.966-1.769Z" transform="translate(-384.621 -55.496)" fill="#dddaec" fill-rule="evenodd"/>
      </g>
      <g id="Grupo_1102072" data-name="Grupo 1102072" transform="translate(96.418 18.628)">
        <path id="Trazado_884322" data-name="Trazado 884322" d="M423.019,80.6l-5.857,2.784,5.169,7.469.334.478,5.936,8.576c1.166,1.684.085,4.082-1.769,4.96l5.857-2.785c1.848-.878,2.929-3.276,1.762-4.96l-6.263-9.054Z" transform="translate(-417.162 -80.599)" fill="#80b4fb" fill-rule="evenodd"/>
      </g>
      <g id="Grupo_1102073" data-name="Grupo 1102073" transform="translate(1.736 100.569)">
        <path id="Trazado_884323" data-name="Trazado 884323" d="M10.255,451.167H119.611a2.765,2.765,0,0,0,2.758-2.706v-10.62a2.765,2.765,0,0,0-2.758-2.706H10.255A2.759,2.759,0,0,0,7.5,437.841v10.62a2.759,2.759,0,0,0,2.752,2.706Z" transform="translate(-7.503 -435.135)" fill="#d09080" fill-rule="evenodd"/>
      </g>
      <g id="Grupo_1102074" data-name="Grupo 1102074" transform="translate(17.735 76.144)">
        <path id="Trazado_884324" data-name="Trazado 884324" d="M76.724,347.019l8.039-.812a9.079,9.079,0,0,0,7.96-8.845v-6.643a1.238,1.238,0,0,0-1.382-1.258l-6.656.668a9.09,9.09,0,0,0-7.96,8.845v8.046Z" transform="translate(-76.724 -329.454)" fill="#a7e9a6" fill-rule="evenodd"/>
      </g>
      <g id="Grupo_1102075" data-name="Grupo 1102075" transform="translate(17.735 76.144)">
        <path id="Trazado_884325" data-name="Trazado 884325" d="M84.763,346.207a9.079,9.079,0,0,0,7.96-8.845v-6.643a1.238,1.238,0,0,0-1.382-1.258l-2.1.21v5.346a7.922,7.922,0,0,1-7.508,8.045L79.4,343.3l-2.68.275v3.446Z" transform="translate(-76.724 -329.454)" fill="#7fdbae" fill-rule="evenodd"/>
      </g>
      <g id="Grupo_1102076" data-name="Grupo 1102076" transform="translate(106.592 100.569)">
        <path id="Trazado_884326" data-name="Trazado 884326" d="M463.942,437.887v10.522a2.767,2.767,0,0,1-2.758,2.758h7.252a2.765,2.765,0,0,0,2.758-2.706v-10.62a2.765,2.765,0,0,0-2.758-2.706h-7.252A2.761,2.761,0,0,1,463.942,437.887Z" transform="translate(-461.184 -435.135)" fill="#ce775f" fill-rule="evenodd"/>
      </g>
      <g id="Grupo_1102077" data-name="Grupo 1102077" transform="translate(1.782 67.227)">
        <path id="Trazado_884327" data-name="Trazado 884327" d="M23.7,308.439l-8.039-.812a9.09,9.09,0,0,1-7.96-8.845v-6.643a1.238,1.238,0,0,1,1.382-1.258l6.656.668a9.09,9.09,0,0,1,7.96,8.845v8.046Z" transform="translate(-7.701 -290.874)" fill="#a7e9a6" fill-rule="evenodd"/>
      </g>
      <g id="Grupo_1102078" data-name="Grupo 1102078" transform="translate(1.782 67.227)">
        <path id="Trazado_884328" data-name="Trazado 884328" d="M15.661,307.627a9.09,9.09,0,0,1-7.96-8.845v-6.643a1.238,1.238,0,0,1,1.382-1.258l2.1.21v5.346a7.926,7.926,0,0,0,7.508,8.045l2.332.236,2.68.269v3.453Z" transform="translate(-7.701 -290.874)" fill="#7fdbae" fill-rule="evenodd"/>
      </g>
      <g id="Grupo_1102079" data-name="Grupo 1102079" transform="translate(59.166 76.144)">
        <path id="Trazado_884329" data-name="Trazado 884329" d="M255.986,347.019l8.045-.812a9.085,9.085,0,0,0,7.96-8.845v-6.643a1.243,1.243,0,0,0-1.389-1.258l-6.656.668a9.09,9.09,0,0,0-7.96,8.845v8.046Z" transform="translate(-255.986 -329.454)" fill="#a7e9a6" fill-rule="evenodd"/>
      </g>
      <g id="Grupo_1102080" data-name="Grupo 1102080" transform="translate(59.167 76.144)">
        <path id="Trazado_884330" data-name="Trazado 884330" d="M264.032,346.207a9.085,9.085,0,0,0,7.96-8.845v-6.643a1.243,1.243,0,0,0-1.389-1.258l-2.09.21v5.346a7.931,7.931,0,0,1-7.508,8.045l-2.332.236-2.686.275v3.446Z" transform="translate(-255.987 -329.454)" fill="#7fdbae" fill-rule="evenodd"/>
      </g>
      <g id="Grupo_1102081" data-name="Grupo 1102081" transform="translate(43.213 67.227)">
        <path id="Trazado_884331" data-name="Trazado 884331" d="M202.961,308.439l-8.039-.812a9.09,9.09,0,0,1-7.96-8.845v-6.643a1.238,1.238,0,0,1,1.382-1.258l6.656.668a9.085,9.085,0,0,1,7.96,8.845v8.046Z" transform="translate(-186.962 -290.874)" fill="#a7e9a6" fill-rule="evenodd"/>
      </g>
      <g id="Grupo_1102082" data-name="Grupo 1102082" transform="translate(43.213 67.227)">
        <path id="Trazado_884332" data-name="Trazado 884332" d="M194.922,307.627a9.09,9.09,0,0,1-7.96-8.845v-6.643a1.238,1.238,0,0,1,1.382-1.258l2.1.21v5.346a7.931,7.931,0,0,0,7.508,8.045l2.332.236,2.68.269v3.453Z" transform="translate(-186.962 -290.874)" fill="#7fdbae" fill-rule="evenodd"/>
      </g>
      <g id="Grupo_1102083" data-name="Grupo 1102083" transform="translate(100.604 76.144)">
        <path id="Trazado_884333" data-name="Trazado 884333" d="M435.276,347.019l8.039-.812a9.085,9.085,0,0,0,7.96-8.845v-6.643a1.24,1.24,0,0,0-1.389-1.258l-6.656.668a9.084,9.084,0,0,0-7.953,8.845v8.046Z" transform="translate(-435.276 -329.454)" fill="#a7e9a6" fill-rule="evenodd"/>
      </g>
      <g id="Grupo_1102084" data-name="Grupo 1102084" transform="translate(100.604 76.144)">
        <path id="Trazado_884334" data-name="Trazado 884334" d="M443.315,346.207a9.085,9.085,0,0,0,7.96-8.845v-6.643a1.24,1.24,0,0,0-1.389-1.258l-2.09.21v5.346a7.931,7.931,0,0,1-7.508,8.045l-2.332.236-2.68.275v3.446Z" transform="translate(-435.277 -329.454)" fill="#7fdbae" fill-rule="evenodd"/>
      </g>
      <g id="Grupo_1102085" data-name="Grupo 1102085" transform="translate(84.645 67.227)">
        <path id="Trazado_884335" data-name="Trazado 884335" d="M382.229,308.439l-8.045-.812a9.09,9.09,0,0,1-7.96-8.845v-6.643a1.24,1.24,0,0,1,1.389-1.258l6.656.668a9.09,9.09,0,0,1,7.96,8.845v8.046Z" transform="translate(-366.224 -290.874)" fill="#a7e9a6" fill-rule="evenodd"/>
      </g>
      <g id="Grupo_1102086" data-name="Grupo 1102086" transform="translate(84.645 67.227)">
        <path id="Trazado_884336" data-name="Trazado 884336" d="M374.184,307.627a9.09,9.09,0,0,1-7.96-8.845v-6.643a1.24,1.24,0,0,1,1.389-1.258l2.09.21v5.346a7.931,7.931,0,0,0,7.508,8.045l2.332.236,2.686.269v3.453Z" transform="translate(-366.224 -290.874)" fill="#7fdbae" fill-rule="evenodd"/>
      </g>
      <g id="Grupo_1102087" data-name="Grupo 1102087" transform="translate(0.003 0)">
        <path id="Trazado_884337" data-name="Trazado 884337" d="M124.248,175.609a1.733,1.733,0,0,0,1.733-1.733v-3.859a5.269,5.269,0,0,1,5.263-5.264H134.8a1.733,1.733,0,0,0,0-3.467h-3.557a8.74,8.74,0,0,0-8.73,8.731v3.859A1.734,1.734,0,0,0,124.248,175.609Z" transform="translate(-94.199 -124.009)"/>
        <path id="Trazado_884338" data-name="Trazado 884338" d="M124.248,250.638a1.733,1.733,0,0,0,1.733-1.733v-5.72a1.733,1.733,0,0,0-3.467,0v5.72A1.733,1.733,0,0,0,124.248,250.638Z" transform="translate(-94.2 -185.647)"/>
        <path id="Trazado_884339" data-name="Trazado 884339" d="M157.863,192.663v8.4a1.733,1.733,0,0,0,3.467,0v-8.4a1.427,1.427,0,0,1,1.411-1.4h3.06a1.733,1.733,0,0,0,0-3.467h-3.06A4.88,4.88,0,0,0,157.863,192.663Z" transform="translate(-121.378 -144.388)"/>
        <path id="Trazado_884340" data-name="Trazado 884340" d="M222.479,48.868a4.107,4.107,0,0,0,2.286.685,4.389,4.389,0,0,0,1.683-.339l5.723-2.37,14.7,1.134,1.077,3.726a4.573,4.573,0,0,0,2.588,2.911,5.665,5.665,0,0,0,2.321.491,5.747,5.747,0,0,0,2.46-.549l27.11-12.881a5.763,5.763,0,0,0,3.064-3.67,4.57,4.57,0,0,0-.62-3.841l-5.464-7.9a15.875,15.875,0,1,0-27.8-8.911l-7.8,3.707h0c-2.479,1.178-3.557,3.994-2.684,7.007l2.021,6.99h-10.9l-5.791-2.4a4.225,4.225,0,0,0-3.968.357,3.809,3.809,0,0,0-1.714,3.211v9.421a3.806,3.806,0,0,0,1.717,3.215Zm59.54-12.73a1.132,1.132,0,0,1,.121.974,2.317,2.317,0,0,1-1.2,1.433l-27.11,12.88a2.317,2.317,0,0,1-1.87.028,1.135,1.135,0,0,1-.68-.713l-5.172-17.886,25.319-12.028ZM262.083,4.667h0A12.41,12.41,0,0,1,277.353,23.3l-.006-.006-6.472-9.354c-1.787-2.579-4.654-3.523-7.135-2.348L255,15.742h0a12.432,12.432,0,0,1,7.083-11.076Zm-16.8,19.53,19.941-9.473c1.1-.52,2.194.316,2.8,1.189l1.4,2.025L245.13,29.48l-.686-2.372c-.3-1.018-.252-2.391.841-2.911ZM233.624,38.529h10.511l1.7,5.892-12.214-.942V38.529Zm-9.395-2.3a.368.368,0,0,1,.177-.331.678.678,0,0,1,.373-.105.9.9,0,0,1,.342.072l5.036,2.086v5.971l-5.038,2.087a.75.75,0,0,1-.716-.027.364.364,0,0,1-.174-.331Z" transform="translate(-169.74 0)"/>
        <path id="Trazado_884341" data-name="Trazado 884341" d="M116.276,462.81a1.733,1.733,0,0,0,0,2.452l.006.007a1.734,1.734,0,1,0-.006-2.458Z" transform="translate(-89.012 -355.454)"/>
        <path id="Trazado_884342" data-name="Trazado 884342" d="M189.239,466.609a1.734,1.734,0,0,0,0,2.452l.006.006a1.734,1.734,0,1,0-.006-2.458Z" transform="translate(-145.112 -358.375)"/>
        <path id="Trazado_884343" data-name="Trazado 884343" d="M306.281,462.81a1.734,1.734,0,0,0,0,2.452l.006.007a1.734,1.734,0,1,0-.006-2.458Z" transform="translate(-235.103 -355.454)"/>
        <path id="Trazado_884344" data-name="Trazado 884344" d="M370.466,469.573a1.738,1.738,0,1,0-1.228-.513l.006.006A1.721,1.721,0,0,0,370.466,469.573Z" transform="translate(-283.509 -358.375)"/>
        <path id="Trazado_884345" data-name="Trazado 884345" d="M108.816,312.5a10.835,10.835,0,0,0,9.521-10.569v-6.643a2.973,2.973,0,0,0-3.3-2.983l-6.659.668a10.444,10.444,0,0,0-6.044,2.809l.015-1.191a10.784,10.784,0,0,0-9.489-10.535l-6.653-.668a2.973,2.973,0,0,0-3.3,2.982v6.643a10.846,10.846,0,0,0,9.519,10.569l6.44.65v12.48H86.27a1.733,1.733,0,1,0,0,3.467h27.575a1.023,1.023,0,0,1,1.025,1.018v10.522a1.038,1.038,0,0,1-1.025,1.025H4.488a1.035,1.035,0,0,1-1.018-1.025V321.2a1.032,1.032,0,0,1,1.018-1.018H78.264a1.733,1.733,0,1,0,0-3.467H60.9v-3.559l6.485-.655a10.835,10.835,0,0,0,9.52-10.569v-6.643a2.976,2.976,0,0,0-3.3-2.983l-6.659.668a10.457,10.457,0,0,0-6.051,2.811s.046-1.024.046-1.159a10.846,10.846,0,0,0-9.52-10.569l-6.651-.668a2.971,2.971,0,0,0-3.294,2.982v6.643A10.846,10.846,0,0,0,51,303.584l6.433.65v12.48H19.469v-3.559l6.478-.655a10.835,10.835,0,0,0,9.521-10.569v-6.643a2.97,2.97,0,0,0-3.289-2.983l-6.659.668a10.455,10.455,0,0,0-6.051,2.811s.046-1.024.046-1.158a10.847,10.847,0,0,0-9.52-10.569l-6.651-.668a3,3,0,0,0-2.311.745,3.013,3.013,0,0,0-.983,2.238v6.643a10.846,10.846,0,0,0,9.519,10.569l6.434.65v12.48H4.488A4.49,4.49,0,0,0,0,321.2v10.522a4.493,4.493,0,0,0,4.485,4.492H113.845a4.5,4.5,0,0,0,4.492-4.492V321.2a4.493,4.493,0,0,0-4.492-4.485H102.338v-3.559Zm-6.478-8.958a7.393,7.393,0,0,1,6.393-7.12l6.139-.616v6.125a7.388,7.388,0,0,1-6.4,7.12l-3.563.36,4.408-4.876a1.734,1.734,0,0,0-2.572-2.325l-4.4,4.872Zm-3.467-5.422-4.364-4.828a1.734,1.734,0,1,0-2.572,2.325l4.407,4.876-3.561-.36a7.4,7.4,0,0,1-6.4-7.12V286.89l6.136.616a7.355,7.355,0,0,1,6.356,7.12ZM60.9,303.544a7.4,7.4,0,0,1,6.4-7.12l6.139-.616v6.125a7.387,7.387,0,0,1-6.4,7.12l-3.563.36,4.407-4.876a1.734,1.734,0,0,0-2.572-2.325L60.9,307.09Zm-10.4-7.924,4.408,4.876-3.561-.36a7.4,7.4,0,0,1-6.4-7.12v-6.124l6.13.615a7.354,7.354,0,0,1,6.356,7.12v3.488l-4.357-4.821a1.734,1.734,0,0,0-2.573,2.325Zm-31.035,7.924a7.4,7.4,0,0,1,6.4-7.12L32,295.808v6.124a7.386,7.386,0,0,1-6.4,7.12l-3.56.36,4.411-4.875a1.733,1.733,0,0,0-2.571-2.326l-4.41,4.875Zm-10.4-7.924,4.408,4.876-3.561-.36a7.4,7.4,0,0,1-6.4-7.12v-6.124l6.13.615A7.356,7.356,0,0,1,16,294.627v3.488l-4.357-4.821a1.734,1.734,0,0,0-2.573,2.325Z" transform="translate(-0.003 -217.88)"/>
      </g>
    </g>
  </g>
</svg>
