<svg xmlns="http://www.w3.org/2000/svg" width="190" height="165" viewBox="0 0 190 165">
  <g id="img-3" transform="translate(7528.949 -2278)">
    <g id="Grupo_1102139" data-name="Grupo 1102139" transform="translate(-8654 1268)">
      <rect id="Rect치ngulo_402528" data-name="Rect치ngulo 402528" width="190" height="165" rx="20" transform="translate(1125.051 1010)" fill="#f6faea"/>
      <g id="ceto" transform="translate(1163.195 1035.645)">
        <rect id="Rect치ngulo_402540" data-name="Rect치ngulo 402540" width="62.244" height="76.956" rx="1" transform="translate(23.499 32.556)" fill="#fcf3e0"/>
        <ellipse id="Elipse_11651" data-name="Elipse 11651" cx="20.371" cy="19.805" rx="20.371" ry="19.805" transform="translate(34.816 40.478)" fill="#557c3e"/>
        <path id="Trazado_882522" data-name="Trazado 882522" d="M69.914,14.314h1.829a1.829,1.829,0,0,0,1.829-1.829V8.829A1.829,1.829,0,0,0,71.742,7h-25.6a1.829,1.829,0,0,0-1.829,1.829v3.657a1.829,1.829,0,0,0,1.829,1.829h1.829v19.67a5.486,5.486,0,0,1-1.608,3.881A31.97,31.97,0,0,0,37,60.472v39.784a5.486,5.486,0,0,0,5.486,5.486H75.4a5.486,5.486,0,0,0,5.486-5.486V60.472A31.971,31.971,0,0,0,71.52,37.863a5.486,5.486,0,0,1-1.606-3.879Z" transform="translate(29.001 4.143)" fill="#f9d467"/>
        <path id="Trazado_882523" data-name="Trazado 882523" d="M64.542,11H17v7.314H64.542Z" transform="translate(12.43 7.457)" fill="#dbdbdb"/>
        <path id="Trazado_882524" data-name="Trazado 882524" d="M68.428,14.314a1.829,1.829,0,0,0,1.829-1.829V8.829A1.829,1.829,0,0,0,68.428,7h-25.6A1.829,1.829,0,0,0,41,8.829v3.657a1.829,1.829,0,0,0,1.829,1.829h1.829V28.942H66.6V14.314Z" transform="translate(32.315 4.143)" fill="#fff"/>
        <path id="Trazado_882525" data-name="Trazado 882525" d="M20,15H62.056v7.314H20Z" transform="translate(14.916 10.771)" fill="#dbdbdb"/>
        <path id="Trazado_882526" data-name="Trazado 882526" d="M40.628,58.486a11.057,11.057,0,0,1,.592-3.6A10.423,10.423,0,0,0,35.143,53C30.094,53,26,56.275,26,60.314s4.094,7.314,9.143,7.314a9.958,9.958,0,0,0,7.389-3.039,10.423,10.423,0,0,1-1.9-6.1Z" transform="translate(19.887 42.255)" fill="#557c3e"/>
        <path id="Trazado_882527" data-name="Trazado 882527" d="M39.517,36.7q-.115-.519-.249-1.028c-1.679-6.444-5.4-11.75-12.686-12.577a14.773,14.773,0,0,0-13.674,6.12c-2.887,4.094-3.372,9.41-3.895,14.244A66.56,66.56,0,0,1,5.622,59.2L4.355,62.7C-.24,75.372,7.28,89.659,20.528,92.094q.8.148,1.622.24A23.735,23.735,0,0,0,39.556,87.41a21.964,21.964,0,0,0,6.33-25.5l-.236-.58-.516-1.28c-3.026-7.468-3.867-15.539-5.617-23.349Z" transform="translate(0.831 17.402)" fill="#97b340"/>
        <path id="Trazado_882528" data-name="Trazado 882528" d="M23.217,87.168A21.032,21.032,0,0,1,20.9,87.04q-.688-.078-1.364-.2A17.3,17.3,0,0,1,7.525,78.223,18.969,18.969,0,0,1,6.139,62.287l1.267-3.5a69.882,69.882,0,0,0,3.588-16.6l.053-.5c.468-4.352.953-8.852,3.2-12.034a11.094,11.094,0,0,1,10.273-4.584c1.781.2,7.2.817,9.56,9.874q.115.443.218.9c.5,2.242.938,4.571,1.36,6.817a88.428,88.428,0,0,0,4.436,17.117l.752,1.845a18.3,18.3,0,0,1-5.2,21.249,19.9,19.9,0,0,1-12.421,4.3Z" transform="translate(2.487 19.059)" fill="#a9c358"/>
        <ellipse id="Elipse_11652" data-name="Elipse 11652" cx="9.143" cy="10.971" rx="9.143" ry="10.971" transform="translate(16.561 75.142)" fill="#936f46"/>
        <path id="Trazado_882529" data-name="Trazado 882529" d="M44,3l1.626,7.314,2.032,9.143H58.628l2.032-9.143L62.285,3Z" transform="translate(34.801 0.829)" fill="#936f46"/>
        <path id="Trazado_882530" data-name="Trazado 882530" d="M35.9,66.246a6.747,6.747,0,0,0,5.411,3.039c4.039,0,7.314-4.094,7.314-9.143S45.354,51,41.314,51a7.481,7.481,0,0,0-6.722,5.544,11.057,11.057,0,0,0-.592,3.6,10.423,10.423,0,0,0,1.9,6.1Z" transform="translate(26.515 40.599)" fill="#557c3e"/>
        <path id="Trazado_882531" data-name="Trazado 882531" d="M33.209,48.114c10.971,0,0-20.114,0-20.114S22.238,48.114,33.209,48.114Z" transform="translate(21.821 21.542)" fill="#f9d467"/>
        <ellipse id="Elipse_11653" data-name="Elipse 11653" cx="4.571" cy="7.314" rx="4.571" ry="7.314" transform="translate(91.256 49.1) rotate(-16.677)" fill="#fce9c0"/>
        <circle id="Elipse_11654" data-name="Elipse 11654" cx="1.698" cy="1.698" r="1.698" transform="translate(99.324 64.244)" fill="#fce9c0"/>
        <path id="Trazado_882532" data-name="Trazado 882532" d="M60.66,6.657l-1.4,6.279A3.657,3.657,0,0,1,55.7,15.8h-5.12a3.657,3.657,0,0,1-3.569-2.863l-1.388-6.28L44.812,3H44l1.626,7.314,2.032,9.143H58.628l2.032-9.143L62.285,3h-.812Z" transform="translate(34.801 0.829)" fill="#6b4b2c"/>
        <path id="Trazado_882533" data-name="Trazado 882533" d="M19.1,56.143c-4.529,0-8.28-3.955-9.006-9.143a13.057,13.057,0,0,0-.137,1.829c0,6.06,4.092,10.971,9.143,10.971s9.143-4.911,9.143-10.971A13.057,13.057,0,0,0,28.11,47C27.383,52.188,23.634,56.143,19.1,56.143Z" transform="translate(6.599 37.284)" fill="#6b4b2c"/>
        <path id="Trazado_882534" data-name="Trazado 882534" d="M20,15H62.056v3.657H20Z" transform="translate(14.916 10.771)" fill="#ccc"/>
        <path id="Trazado_882535" data-name="Trazado 882535" d="M30.9,53.8c0-7.056-4.921-12.8-10.971-12.8S8.962,46.743,8.962,53.8s4.921,12.8,10.971,12.8S30.9,60.856,30.9,53.8Zm-18.285,0c0-5.041,3.28-9.143,7.314-9.143s7.314,4.1,7.314,9.143-3.282,9.143-7.314,9.143S12.619,58.841,12.619,53.8Z" transform="translate(5.771 32.313)"/>
        <path id="Trazado_882536" data-name="Trazado 882536" d="M100.743,38.128V20.285a3.657,3.657,0,0,0,3.657-3.657V12.971a3.657,3.657,0,0,0-3.657-3.657h-3l1.13-5.089A1.829,1.829,0,0,0,97.086,2H78.8a1.829,1.829,0,0,0-1.785,2.225l1.13,5.089h-3a3.657,3.657,0,0,0-3.657,3.657v3.657H29.43A1.829,1.829,0,0,0,27.6,18.457v7.314A1.829,1.829,0,0,0,29.43,27.6h3.657v3.657H25.773a3.657,3.657,0,0,0-3.657,3.657v4.1a16.44,16.44,0,0,0-9.874,6.543C9.181,49.9,8.585,55.35,8.077,60.16l-.055.494A64.663,64.663,0,0,1,4.73,75.979l-1.265,3.5A24.457,24.457,0,0,0,5.252,100.01a23.023,23.023,0,0,0,15.777,11.28q.867.159,1.752.258a26.147,26.147,0,0,0,2.926.163H104.4a7.314,7.314,0,0,0,7.314-7.314V64.613a33.585,33.585,0,0,0-9.9-23.9A3.677,3.677,0,0,1,100.743,38.128ZM81.081,5.657H94.806l-.812,3.657h-12.1Zm12.1,7.314-1.214,5.486H83.921L82.7,12.971Zm-18.037,0H78.96l1.713,7.711a1.829,1.829,0,0,0,1.785,1.432H93.429a1.828,1.828,0,0,0,1.785-1.431l1.713-7.711h3.816v3.657H98.915a1.829,1.829,0,0,0-1.829,1.829v12.8H78.8v-12.8a1.829,1.829,0,0,0-1.829-1.829H75.144ZM31.259,20.285H75.144v3.657H31.259ZM36.745,27.6h38.4v3.657h-38.4Zm38.4,7.314v3.215a3.677,3.677,0,0,1-1.072,2.586A34.053,34.053,0,0,0,70.5,44.971a21.908,21.908,0,0,0-31.634.706,14.967,14.967,0,0,0-11.247-7,16.488,16.488,0,0,0-1.847-.086V34.914ZM67.83,108.055a4.89,4.89,0,0,1-3.851-2.116c-.015-.026-.037-.046-.053-.071a8.671,8.671,0,0,1-1.582-5.127c0-4.034,2.461-7.314,5.486-7.314s5.486,3.28,5.486,7.314-2.461,7.314-5.486,7.314ZM47.716,102.57c0-3.024,3.28-5.486,7.314-5.486A8.885,8.885,0,0,1,58.987,98a13.045,13.045,0,0,0-.3,2.743,12.531,12.531,0,0,0,1.37,5.745,8.594,8.594,0,0,1-5.027,1.569C51,108.055,47.716,105.594,47.716,102.57Zm12.555-7.991a12.63,12.63,0,0,0-11.086.267A24.409,24.409,0,0,0,49.411,81.7a21.7,21.7,0,0,0,14.762-1.238V90.7A9.8,9.8,0,0,0,60.271,94.579Zm3.9-29.966v11.7a18.5,18.5,0,0,1-16.29,1.006l-.221-.549A84.082,84.082,0,0,1,43.532,60.7c-.432-2.295-.878-4.668-1.4-6.992q-.121-.549-.261-1.1a26.538,26.538,0,0,0-1.156-3.423,18.2,18.2,0,0,1,27.752-1.039,33.579,33.579,0,0,0-4.3,16.468ZM21.69,107.69A19.11,19.11,0,0,1,8.424,98.181,20.8,20.8,0,0,1,6.9,80.713l1.269-3.5a68.253,68.253,0,0,0,3.489-16.179l.053-.5c.494-4.582,1-9.326,3.52-12.891a12.847,12.847,0,0,1,10.507-5.423,13.167,13.167,0,0,1,1.463.082c5.608.638,9.351,4.412,11.125,11.222.082.318.161.638.232.967.508,2.264.947,4.6,1.373,6.87a86.917,86.917,0,0,0,4.334,16.768l.488,1.2.261.644a20.145,20.145,0,0,1-5.765,23.38,21.878,21.878,0,0,1-16.075,4.544c-.5-.049-1-.124-1.488-.219Zm19.827-1.445a22.06,22.06,0,0,0,2.648-2.47,8.347,8.347,0,0,0,2.108,4.281H38.855A25.56,25.56,0,0,0,41.517,106.245Zm66.541-1.847a3.657,3.657,0,0,1-3.657,3.657H74.625a12.218,12.218,0,0,0,2.348-7.314c0-6.051-4.1-10.971-9.143-10.971V64.613A29.953,29.953,0,0,1,76.658,43.3,7.354,7.354,0,0,0,78.8,38.128V34.914H97.086v3.215A7.354,7.354,0,0,0,99.229,43.3a29.953,29.953,0,0,1,8.828,21.313Z" transform="translate(0 0)"/>
        <path id="Trazado_882537" data-name="Trazado 882537" d="M52.829,65.942a1.829,1.829,0,1,0,0,3.657h5.486A5.486,5.486,0,0,0,63.8,64.114V45.829a1.829,1.829,0,1,0-3.657,0V64.114a1.829,1.829,0,0,1-1.829,1.829Z" transform="translate(40.601 34.799)"/>
        <path id="Trazado_882538" data-name="Trazado 882538" d="M49.657,56H47.829a1.829,1.829,0,1,0,0,3.657h1.829a1.829,1.829,0,0,0,0-3.657Z" transform="translate(36.458 44.741)"/>
        <path id="Trazado_882539" data-name="Trazado 882539" d="M32.421,27.92c-.783,1.435-7.541,14.173-4.107,19.962a6.138,6.138,0,0,0,5.712,2.856,6.138,6.138,0,0,0,5.712-2.856c3.43-5.789-3.324-18.527-4.107-19.962a1.9,1.9,0,0,0-3.211,0Zm4.173,18.1c-.272.457-.834,1.066-2.56,1.066s-2.295-.609-2.56-1.066c-1.373-2.311.388-8.228,2.56-13.091,2.172,4.849,3.933,10.766,2.553,13.083Z" transform="translate(21.004 20.746)"/>
      </g>
    </g>
  </g>
</svg>
