<svg xmlns="http://www.w3.org/2000/svg" width="63.73" height="64.039" viewBox="0 0 63.73 64.039">
  <g id="img-14" transform="translate(2021.115 16071.797)">
    <g id="Grow_Plant" data-name="Grow Plant" transform="translate(-2021.115 -16071.797)">
      <path id="Trazado_884401" data-name="Trazado 884401" d="M44.8,37.649A1.149,1.149,0,1,1,43.649,36.5,1.149,1.149,0,0,1,44.8,37.649Z" transform="translate(1.481 0.834)" fill="#56681c"/>
      <path id="Trazado_884402" data-name="Trazado 884402" d="M53.8,42.649A1.149,1.149,0,1,1,52.649,41.5,1.149,1.149,0,0,1,53.8,42.649Z" transform="translate(2.818 1.577)" fill="#56681c"/>
      <path id="Trazado_884403" data-name="Trazado 884403" d="M13.8,39.649A1.149,1.149,0,1,1,12.649,38.5,1.149,1.149,0,0,1,13.8,39.649Z" transform="translate(-3.126 1.131)" fill="#56681c"/>
      <path id="Trazado_884404" data-name="Trazado 884404" d="M57.3,52.149A1.149,1.149,0,1,1,56.149,51,1.149,1.149,0,0,1,57.3,52.149Z" transform="translate(3.338 2.989)" fill="#56681c"/>
      <path id="Trazado_884405" data-name="Trazado 884405" d="M9.3,48.149A1.149,1.149,0,1,1,8.149,47,1.149,1.149,0,0,1,9.3,48.149Z" transform="translate(-3.794 2.395)" fill="#56681c"/>
      <path id="Trazado_884406" data-name="Trazado 884406" d="M58.3,34.149A1.149,1.149,0,1,1,57.149,33,1.149,1.149,0,0,1,58.3,34.149Z" transform="translate(3.487 0.314)" fill="#56681c"/>
      <path id="Trazado_884407" data-name="Trazado 884407" d="M46.3,49.149A1.149,1.149,0,1,1,45.149,48,1.149,1.149,0,0,1,46.3,49.149Z" transform="translate(1.704 2.543)" fill="#56681c"/>
      <path id="Trazado_884408" data-name="Trazado 884408" d="M8.3,33.149A1.149,1.149,0,1,1,7.149,32,1.149,1.149,0,0,1,8.3,33.149Z" transform="translate(-3.943 0.166)" fill="#56681c"/>
      <path id="Trazado_884409" data-name="Trazado 884409" d="M66.659,30.878c-1.916.209-5.884,2.3-8.458,2.71-2.049.33-6.307-1.748-8.2-2.93-5.1-3.19-7.16.4-12.732,1.331-.023-9.969-.084-9.869.6-11.5,8.656.275,16.983-5,17.781-14.815a1.568,1.568,0,0,0-2.24-1.524C47.836,6.738,45.91,4,39.907,7.758c-2.171,1.358-4.606,4.376-4.02,11.018-1.594-4.737-4.723-5.567-6.662-5.576-1.466.026-3.316.639-5.843-.309a1.6,1.6,0,0,0-2.143,1.838c1.251,5.55,6.192,9.8,13.751,8.9V32.1c-3.121-.306-5.9-3.039-14.37-.277-4.973,1.623-6.015-1.034-9.461-1.94a10.211,10.211,0,0,0-6.2.5,1.149,1.149,0,1,0,.8,2.154,7.873,7.873,0,0,1,4.816-.432c2.843.747,4.8,3.848,10.757,1.9,7.972-2.6,9.8.115,13.657.4V36.2c-13.567.061-23.431,17.136-12.7,21.985a5.6,5.6,0,0,1-1.876,1.552c-3.019,1.483-8.52-1.624-13.99,5.4a1.148,1.148,0,1,0,1.813,1.411c3.525-4.524,6.972-3.973,9.751-4,3.246,3.928,6.536,1.211,9.321,1.74a7.615,7.615,0,0,1,4.458,3.28A1.149,1.149,0,1,0,33.614,66.2a9.783,9.783,0,0,0-5.876-4.177c-3.192-.624-4.88,1.174-6.892.017a8.04,8.04,0,0,0,3.735-3.14C29.9,59.889,36.6,57.261,40.8,52.276a4.013,4.013,0,0,1,2.438,3.36c-3.7,2.444-1.34,5.418-4.594,7.733a1.148,1.148,0,1,0,1.334,1.87c3.309-2.355,2.565-5.054,3.507-6.6.338,4.46,2.393,7.536,7.551,8.879A1.148,1.148,0,1,0,51.6,65.3c-9.919-2.584-2.471-11.141-9.468-14.888,2.225-3.528,2.965-7.824.44-11.044a8.48,8.48,0,0,0-5.3-2.975V34.324c6.088-.841,7.492-4.222,11.511-1.71,2.249,1.407,6.9,3.709,9.778,3.249,2.221-.358,7.495-2.6,8.345-2.692a1.153,1.153,0,0,0-.253-2.293ZM41.126,9.706C46.18,6.542,47.8,8.767,53.209,6.719,51.98,14.13,45.722,18.014,38.894,18.2a14.472,14.472,0,0,1,6.262-5.959,1.149,1.149,0,1,0-1.027-2.055,16.884,16.884,0,0,0-5.944,4.906,6.861,6.861,0,0,1,2.94-5.383ZM30.1,17.475a1.148,1.148,0,1,0-.657,2.2,7.189,7.189,0,0,1,3.1,1.819,9.274,9.274,0,0,1-8.71-6.065,14.991,14.991,0,0,0,5.373.067c2.389.011,3.721,1.772,4.462,3.9A9.856,9.856,0,0,0,30.1,17.475ZM40.781,40.781c5.571,7.109-10.009,20.19-18.259,14.955a11.8,11.8,0,0,1,5.992-9.027,1.149,1.149,0,0,0-1.121-2,13.976,13.976,0,0,0-6.8,8.915c-2.883-5.908,5.814-15.188,14.485-15.188a7.006,7.006,0,0,1,5.7,2.349Z" transform="translate(-4.209 -3.996)" fill="#56681c"/>
    </g>
  </g>
</svg>
